<svg width="17" height="17" viewBox="0 0 17 17" fill="none" xmlns="http://www.w3.org/2000/svg">
<path d="M8.25581 14.5764C9.93117 14.5764 11.5379 13.9109 12.7226 12.7262C13.9072 11.5416 14.5728 9.93484 14.5728 8.25948C14.5728 6.58411 13.9072 4.97737 12.7226 3.79271C11.5379 2.60805 9.93117 1.94252 8.25581 1.94252C6.58045 1.94252 4.97371 2.60805 3.78905 3.79271C2.60439 4.97737 1.93886 6.58411 1.93886 8.25948C1.93886 9.93484 2.60439 11.5416 3.78905 12.7262C4.97371 13.9109 6.58045 14.5764 8.25581 14.5764ZM8.25581 16.1557C3.89475 16.1557 0.359619 12.6205 0.359619 8.25948C0.359619 3.89841 3.89475 0.363281 8.25581 0.363281C12.6169 0.363281 16.152 3.89841 16.152 8.25948C16.152 12.6205 12.6169 16.1557 8.25581 16.1557ZM7.46619 11.418H9.04543V12.9972H7.46619V11.418ZM7.46619 3.52176H9.04543V9.83871H7.46619V3.52176Z" fill="black"/>
</svg>
