<svg width="19" height="20" viewBox="0 0 19 20" fill="none" xmlns="http://www.w3.org/2000/svg">
<path fill-rule="evenodd" clip-rule="evenodd" d="M10.6323 10.1486C10.6323 10.5849 10.2999 10.9376 9.89044 10.9376C9.48093 10.9376 9.14858 10.5849 9.14858 10.1486V2.25782C9.14858 1.82147 9.48093 1.46875 9.89044 1.46875C10.2999 1.46875 10.6323 1.82147 10.6323 2.25782V10.1486ZM12.2932 3.47413C12.4809 3.0867 12.929 2.93598 13.2925 3.13483C15.7696 4.49756 17.309 7.18435 17.309 10.1489C17.309 14.4991 13.981 18.0396 9.89032 18.0396C5.79968 18.0396 2.47168 14.4991 2.47168 10.1489C2.47168 7.18435 4.01105 4.49756 6.48888 3.13483C6.85165 2.93519 7.29973 3.08591 7.48817 3.47413C7.6766 3.86078 7.53342 4.33659 7.16991 4.53701C5.1869 5.62672 3.95541 7.77695 3.95541 10.1489C3.95541 13.6295 6.61796 16.4615 9.89032 16.4615C13.1627 16.4615 15.8252 13.6295 15.8252 10.1489C15.8252 7.77695 14.5937 5.62672 12.6115 4.53701C12.2472 4.33659 12.1048 3.86078 12.2932 3.47413Z" fill="#231F20"/>
<mask id="mask0" mask-type="alpha" maskUnits="userSpaceOnUse" x="2" y="1" width="16" height="18">
<path fill-rule="evenodd" clip-rule="evenodd" d="M10.6323 10.1486C10.6323 10.5849 10.2999 10.9376 9.89044 10.9376C9.48093 10.9376 9.14858 10.5849 9.14858 10.1486V2.25782C9.14858 1.82147 9.48093 1.46875 9.89044 1.46875C10.2999 1.46875 10.6323 1.82147 10.6323 2.25782V10.1486ZM12.2932 3.47413C12.4809 3.0867 12.929 2.93598 13.2925 3.13483C15.7696 4.49756 17.309 7.18435 17.309 10.1489C17.309 14.4991 13.981 18.0396 9.89032 18.0396C5.79968 18.0396 2.47168 14.4991 2.47168 10.1489C2.47168 7.18435 4.01105 4.49756 6.48888 3.13483C6.85165 2.93519 7.29973 3.08591 7.48817 3.47413C7.6766 3.86078 7.53342 4.33659 7.16991 4.53701C5.1869 5.62672 3.95541 7.77695 3.95541 10.1489C3.95541 13.6295 6.61796 16.4615 9.89032 16.4615C13.1627 16.4615 15.8252 13.6295 15.8252 10.1489C15.8252 7.77695 14.5937 5.62672 12.6115 4.53701C12.2472 4.33659 12.1048 3.86078 12.2932 3.47413Z" fill="white"/>
</mask>
<g mask="url(#mask0)">
<rect x="0.988037" y="1.0625" width="18" height="18.4404" fill="white"/>
</g>
</svg>
