<svg width="25" height="25" viewBox="0 0 25 25" fill="none" xmlns="http://www.w3.org/2000/svg">
<path d="M22.8741 6.21178C22.7892 6.05023 22.6618 5.91492 22.5057 5.82046C22.3496 5.726 22.1706 5.67597 21.9881 5.67578H3.9881C3.80594 5.67653 3.62743 5.72693 3.47178 5.82154C3.31612 5.91616 3.1892 6.05142 3.10466 6.21277C3.02013 6.37413 2.98118 6.55548 2.99201 6.73731C3.00283 6.91915 3.06302 7.09459 3.1661 7.24478L12.1661 20.2448C12.2578 20.378 12.3806 20.487 12.5238 20.5622C12.667 20.6375 12.8263 20.6768 12.9881 20.6768C13.1499 20.6768 13.3092 20.6375 13.4524 20.5622C13.5956 20.487 13.7184 20.378 13.8101 20.2448L22.8101 7.24478C22.9142 7.0949 22.9752 6.91935 22.9865 6.73723C22.9978 6.5551 22.9589 6.37336 22.8741 6.21178ZM12.9881 17.9188L5.8961 7.67578H20.0801L12.9881 17.9188Z" fill="white"/>
</svg>
