<svg width="18" height="13" viewBox="0 0 18 13" fill="none" xmlns="http://www.w3.org/2000/svg">
<path d="M16.156 0.511719H1.36717C1.04032 0.511719 0.726849 0.641561 0.495728 0.872681C0.264608 1.1038 0.134766 1.41727 0.134766 1.74412V11.6033C0.134766 11.9302 0.264608 12.2437 0.495728 12.4748C0.726849 12.7059 1.04032 12.8358 1.36717 12.8358H16.156C16.4829 12.8358 16.7963 12.7059 17.0274 12.4748C17.2586 12.2437 17.3884 11.9302 17.3884 11.6033V1.74412C17.3884 1.41727 17.2586 1.1038 17.0274 0.872681C16.7963 0.641561 16.4829 0.511719 16.156 0.511719ZM14.8004 1.74412L8.76159 5.92197L2.72281 1.74412H14.8004ZM1.36717 11.6033V2.30487L8.41035 7.17902C8.5135 7.25058 8.63605 7.28892 8.76159 7.28892C8.88713 7.28892 9.00967 7.25058 9.11282 7.17902L16.156 2.30487V11.6033H1.36717Z" fill="black"/>
</svg>
