<svg width="12" height="12" viewBox="0 0 12 12" fill="none" xmlns="http://www.w3.org/2000/svg">
<path d="M6.01512 2.90913C4.48424 2.90913 3.24943 4.14394 3.24943 5.67482C3.24943 7.2057 4.48424 8.44051 6.01512 8.44051C7.54599 8.44051 8.7808 7.2057 8.7808 5.67482C8.7808 4.14394 7.54599 2.90913 6.01512 2.90913ZM6.01512 7.47288C5.02583 7.47288 4.21706 6.66652 4.21706 5.67482C4.21706 4.68312 5.02342 3.87676 6.01512 3.87676C7.00682 3.87676 7.81317 4.68312 7.81317 5.67482C7.81317 6.66652 7.00441 7.47288 6.01512 7.47288ZM9.53902 2.796C9.53902 3.15465 9.25018 3.44109 8.89394 3.44109C8.53529 3.44109 8.24885 3.15224 8.24885 2.796C8.24885 2.43976 8.53769 2.15092 8.89394 2.15092C9.25018 2.15092 9.53902 2.43976 9.53902 2.796ZM11.3708 3.45072C11.3299 2.58659 11.1325 1.82115 10.4994 1.19051C9.86878 0.559865 9.10335 0.362488 8.23922 0.319161C7.34862 0.268613 4.67921 0.268613 3.78861 0.319161C2.92689 0.36008 2.16145 0.557458 1.5284 1.1881C0.895348 1.81875 0.700378 2.58418 0.657051 3.44831C0.606504 4.33891 0.606504 7.00832 0.657051 7.89892C0.697971 8.76305 0.895348 9.52849 1.5284 10.1591C2.16145 10.7898 2.92448 10.9872 3.78861 11.0305C4.67921 11.081 7.34862 11.081 8.23922 11.0305C9.10335 10.9896 9.86878 10.7922 10.4994 10.1591C11.1301 9.52849 11.3274 8.76305 11.3708 7.89892C11.4213 7.00832 11.4213 4.34132 11.3708 3.45072ZM10.2202 8.85452C10.0325 9.3263 9.669 9.68976 9.19481 9.87991C8.48474 10.1615 6.79981 10.0965 6.01512 10.0965C5.23042 10.0965 3.54309 10.1591 2.83542 9.87991C2.36364 9.69217 2.00018 9.3287 1.81002 8.85452C1.5284 8.14444 1.59339 6.45951 1.59339 5.67482C1.59339 4.89013 1.53081 3.20279 1.81002 2.49512C1.99777 2.02334 2.36123 1.65988 2.83542 1.46972C3.5455 1.1881 5.23042 1.25309 6.01512 1.25309C6.79981 1.25309 8.48715 1.19051 9.19481 1.46972C9.66659 1.65747 10.0301 2.02094 10.2202 2.49512C10.5018 3.2052 10.4368 4.89013 10.4368 5.67482C10.4368 6.45951 10.5018 8.14685 10.2202 8.85452Z" fill="black"/>
</svg>
