<svg width="11" height="13" viewBox="0 0 11 13" fill="none" xmlns="http://www.w3.org/2000/svg">
<path d="M0.679731 4.93248C0.679731 4.39966 0.772872 3.89629 0.956414 3.42648C1.13177 2.97016 1.39231 2.55135 1.72414 2.19236C2.05529 1.83809 2.43425 1.53175 2.85005 1.28219C3.27666 1.0241 3.73851 0.829391 4.22113 0.704167C4.70958 0.575907 5.21254 0.511225 5.71755 0.511722C6.4976 0.511722 7.22355 0.676773 7.89677 1.0055C8.5612 1.32824 9.12673 1.82353 9.53427 2.4396C9.95477 3.06624 10.1637 3.77507 10.1637 4.5654C10.1637 5.03932 10.1171 5.50297 10.0219 5.95635C9.92841 6.40947 9.77984 6.84945 9.57947 7.26648C9.38848 7.67018 9.13877 8.04336 8.83845 8.3739C8.53662 8.69918 8.17109 8.95887 7.76459 9.13683C7.32327 9.33024 6.84587 9.42759 6.36406 9.42242C6.02916 9.42242 5.69495 9.34366 5.36485 9.18546C5.03475 9.02794 4.79779 8.81152 4.65533 8.53415C4.60534 8.7266 4.53685 9.00465 4.44577 9.36831C4.35811 9.73129 4.29921 9.96551 4.27318 10.0717C4.24579 10.1771 4.19511 10.3531 4.12115 10.5969C4.07098 10.7773 4.00664 10.9534 3.9287 11.1236L3.69311 11.5852C3.59122 11.7833 3.47732 11.9749 3.35205 12.1591C3.22809 12.3385 3.07468 12.5529 2.89182 12.7995L2.78978 12.8358L2.72198 12.7618C2.6487 11.9858 2.61103 11.5215 2.61103 11.3681C2.61103 10.914 2.66514 10.4045 2.77197 9.83881C2.87676 9.2738 3.04249 8.5636 3.26507 7.70959C3.48765 6.85625 3.61503 6.35425 3.64928 6.20564C3.49244 5.88581 3.413 5.46804 3.413 4.9544C3.413 4.54417 3.54107 4.15996 3.79789 3.79836C4.0554 3.43812 4.38071 3.258 4.77519 3.258C5.07721 3.258 5.31143 3.35799 5.47922 3.55866C5.6477 3.75864 5.72988 4.01066 5.72988 4.31817C5.72988 4.64416 5.62167 5.11603 5.40389 5.73308C5.1861 6.35083 5.07789 6.81174 5.07789 7.11787C5.07789 7.42811 5.18884 7.68767 5.41073 7.89107C5.62971 8.09458 5.9193 8.20486 6.21818 8.19857C6.48939 8.19857 6.74073 8.13694 6.97427 8.01298C7.20415 7.89265 7.40314 7.72085 7.55571 7.51098C7.88802 7.05506 8.12491 6.53678 8.25221 5.98717C8.31796 5.69816 8.36864 5.42353 8.40014 5.16534C8.4337 4.90577 8.44808 4.66059 8.44808 4.42774C8.44808 3.57372 8.17688 2.90804 7.63789 2.43138C7.09617 1.95472 6.39077 1.71776 5.52305 1.71776C4.53617 1.71776 3.71092 2.0369 3.05003 2.67724C2.38845 3.31553 2.05561 4.12709 2.05561 5.11123C2.05561 5.32833 2.08849 5.5379 2.15081 5.74062C2.21176 5.94265 2.27819 6.10359 2.3501 6.22276C2.42133 6.33987 2.48844 6.45424 2.54939 6.55971C2.61103 6.66518 2.64322 6.74051 2.64322 6.78571C2.64322 6.92405 2.60692 7.10417 2.53364 7.32675C2.45762 7.54933 2.36791 7.66027 2.2597 7.66027C2.24943 7.66027 2.20697 7.65274 2.133 7.63699C1.87684 7.56051 1.6455 7.41755 1.46252 7.22265C1.26832 7.02065 1.11506 6.78297 1.0112 6.52273C0.907637 6.2634 0.826972 5.99552 0.770132 5.72213C0.708722 5.46344 0.678374 5.19835 0.679731 4.93248Z" fill="black"/>
</svg>
