<svg width="17" height="14" viewBox="0 0 17 14" fill="none" xmlns="http://www.w3.org/2000/svg">
<path d="M15.1765 3.32601C15.187 3.47198 15.187 3.61797 15.187 3.76393C15.187 8.21599 11.7984 13.3458 5.6051 13.3458C3.69706 13.3458 1.92458 12.7932 0.433594 11.834C0.70469 11.8653 0.965324 11.8757 1.24685 11.8757C2.82121 11.8757 4.27051 11.344 5.42784 10.4369C3.94729 10.4056 2.70654 9.43591 2.27905 8.10132C2.4876 8.13258 2.69611 8.15344 2.91509 8.15344C3.21744 8.15344 3.51983 8.11172 3.80133 8.03877C2.25822 7.72595 1.10086 6.37053 1.10086 4.73358V4.69189C1.54918 4.94213 2.07054 5.09852 2.6231 5.11935C1.716 4.51461 1.12172 3.48241 1.12172 2.31464C1.12172 1.68907 1.28851 1.11561 1.58047 0.615143C3.23827 2.65872 5.7302 3.99328 8.52445 4.13927C8.47233 3.88903 8.44104 3.6284 8.44104 3.36773C8.44104 1.51181 9.94245 0 11.8088 0C12.7784 0 13.6542 0.406629 14.2694 1.06349C15.0305 0.917531 15.7604 0.636004 16.4068 0.250236C16.1566 1.03223 15.6248 1.6891 14.9263 2.10613C15.604 2.03318 16.2609 1.84546 16.8656 1.58483C16.4069 2.25209 15.8334 2.84637 15.1765 3.32601Z" fill="black"/>
</svg>
