<svg width="8" height="9" viewBox="0 0 8 9" fill="none" xmlns="http://www.w3.org/2000/svg">
<path fill-rule="evenodd" clip-rule="evenodd" d="M2 6.3H6C6.13261 6.3 6.25979 6.34741 6.35355 6.4318C6.44732 6.51619 6.5 6.63065 6.5 6.75C6.5 6.86935 6.44732 6.98381 6.35355 7.0682C6.25979 7.15259 6.13261 7.2 6 7.2H1.5C1.36739 7.2 1.24021 7.15259 1.14645 7.0682C1.05268 6.98381 1 6.86935 1 6.75V0.9H0.5C0.367392 0.9 0.240215 0.852589 0.146447 0.768198C0.0526785 0.683807 0 0.569347 0 0.45C0 0.330653 0.0526785 0.216193 0.146447 0.131802C0.240215 0.0474106 0.367392 0 0.5 0H1.5C1.63261 0 1.75979 0.0474106 1.85355 0.131802C1.94732 0.216193 2 0.330653 2 0.45V4.5H6.3875L7 2.25V1.35045C7.5725 1.35045 8 1.75275 8 2.25C8 2.3157 7.9915 2.38095 7.975 2.4453L7.3995 4.6953C7.2945 5.10705 6.8735 5.4 6.3875 5.4H2.0365L2 5.39955V6.3ZM1.75 9C1.55109 9 1.36032 8.92888 1.21967 8.8023C1.07902 8.67571 1 8.50402 1 8.325C1 8.14598 1.07902 7.97429 1.21967 7.8477C1.36032 7.72112 1.55109 7.65 1.75 7.65C1.94891 7.65 2.13968 7.72112 2.28033 7.8477C2.42098 7.97429 2.5 8.14598 2.5 8.325C2.5 8.50402 2.42098 8.67571 2.28033 8.8023C2.13968 8.92888 1.94891 9 1.75 9ZM6.25 9C6.05109 9 5.86032 8.92888 5.71967 8.8023C5.57902 8.67571 5.5 8.50402 5.5 8.325C5.5 8.14598 5.57902 7.97429 5.71967 7.8477C5.86032 7.72112 6.05109 7.65 6.25 7.65C6.44891 7.65 6.63968 7.72112 6.78033 7.8477C6.92098 7.97429 7 8.14598 7 8.325C7 8.50402 6.92098 8.67571 6.78033 8.8023C6.63968 8.92888 6.44891 9 6.25 9ZM5 1.35H5.5C5.63261 1.35 5.75979 1.39741 5.85355 1.4818C5.94732 1.56619 6 1.68065 6 1.8C6 1.91935 5.94732 2.03381 5.85355 2.1182C5.75979 2.20259 5.63261 2.25 5.5 2.25H5V2.7C5 2.81935 4.94732 2.93381 4.85355 3.0182C4.75979 3.10259 4.63261 3.15 4.5 3.15C4.36739 3.15 4.24021 3.10259 4.14645 3.0182C4.05268 2.93381 4 2.81935 4 2.7V2.25H3.5C3.36739 2.25 3.24021 2.20259 3.14645 2.1182C3.05268 2.03381 3 1.91935 3 1.8C3 1.68065 3.05268 1.56619 3.14645 1.4818C3.24021 1.39741 3.36739 1.35 3.5 1.35H4V0.9C4 0.780653 4.05268 0.666193 4.14645 0.581802C4.24021 0.497411 4.36739 0.45 4.5 0.45C4.63261 0.45 4.75979 0.497411 4.85355 0.581802C4.94732 0.666193 5 0.780653 5 0.9V1.35Z" fill="white"/>
</svg>
