<svg width="15" height="17" viewBox="0 0 15 17" fill="none" xmlns="http://www.w3.org/2000/svg">
<path fill-rule="evenodd" clip-rule="evenodd" d="M4.02219 11.3176H11.0021C11.2335 11.3176 11.4554 11.4003 11.6191 11.5476C11.7827 11.6948 11.8746 11.8946 11.8746 12.1028C11.8746 12.3111 11.7827 12.5108 11.6191 12.6581C11.4554 12.8053 11.2335 12.8881 11.0021 12.8881H3.1497C2.9183 12.8881 2.69638 12.8053 2.53275 12.6581C2.36913 12.5108 2.27721 12.3111 2.27721 12.1028V1.8947H1.40472C1.17332 1.8947 0.951397 1.81197 0.787773 1.66471C0.62415 1.51745 0.532227 1.31772 0.532227 1.10946C0.532227 0.901201 0.62415 0.701472 0.787773 0.554211C0.951397 0.406949 1.17332 0.324219 1.40472 0.324219H3.1497C3.3811 0.324219 3.60302 0.406949 3.76664 0.554211C3.93026 0.701472 4.02219 0.901201 4.02219 1.10946V8.17663H11.6783L12.7471 4.25042V2.68073C13.7461 2.68073 14.4921 3.38273 14.4921 4.25042C14.4921 4.36507 14.4772 4.47893 14.4484 4.59122L13.4442 8.51743C13.261 9.23592 12.5264 9.74711 11.6783 9.74711H4.08588L4.02219 9.74633V11.3176ZM3.58594 16.029C3.23884 16.029 2.90596 15.9049 2.66053 15.6841C2.41509 15.4632 2.27721 15.1636 2.27721 14.8512C2.27721 14.5388 2.41509 14.2392 2.66053 14.0183C2.90596 13.7974 3.23884 13.6733 3.58594 13.6733C3.93304 13.6733 4.26592 13.7974 4.51136 14.0183C4.75679 14.2392 4.89468 14.5388 4.89468 14.8512C4.89468 15.1636 4.75679 15.4632 4.51136 15.6841C4.26592 15.9049 3.93304 16.029 3.58594 16.029ZM11.4384 16.029C11.0913 16.029 10.7584 15.9049 10.5129 15.6841C10.2675 15.4632 10.1296 15.1636 10.1296 14.8512C10.1296 14.5388 10.2675 14.2392 10.5129 14.0183C10.7584 13.7974 11.0913 13.6733 11.4384 13.6733C11.7855 13.6733 12.1183 13.7974 12.3638 14.0183C12.6092 14.2392 12.7471 14.5388 12.7471 14.8512C12.7471 15.1636 12.6092 15.4632 12.3638 15.6841C12.1183 15.9049 11.7855 16.029 11.4384 16.029ZM9.25713 2.67994H10.1296C10.361 2.67994 10.5829 2.76267 10.7466 2.90993C10.9102 3.0572 11.0021 3.25692 11.0021 3.46518C11.0021 3.67344 10.9102 3.87317 10.7466 4.02043C10.5829 4.16769 10.361 4.25042 10.1296 4.25042H9.25713V5.03567C9.25713 5.24393 9.16521 5.44365 9.00158 5.59092C8.83796 5.73818 8.61604 5.82091 8.38464 5.82091C8.15324 5.82091 7.93132 5.73818 7.7677 5.59092C7.60407 5.44365 7.51215 5.24393 7.51215 5.03567V4.25042H6.63966C6.40826 4.25042 6.18634 4.16769 6.02272 4.02043C5.85909 3.87317 5.76717 3.67344 5.76717 3.46518C5.76717 3.25692 5.85909 3.0572 6.02272 2.90993C6.18634 2.76267 6.40826 2.67994 6.63966 2.67994H7.51215V1.8947C7.51215 1.68644 7.60407 1.48671 7.7677 1.33945C7.93132 1.19219 8.15324 1.10946 8.38464 1.10946C8.61604 1.10946 8.83796 1.19219 9.00158 1.33945C9.16521 1.48671 9.25713 1.68644 9.25713 1.8947V2.67994Z" fill="white"/>
</svg>
