<svg width="30" height="30" viewBox="0 0 30 30" fill="none" xmlns="http://www.w3.org/2000/svg">
<path d="M20.806 9.70145C20.806 9.55413 20.6854 9.43359 20.5381 9.43359L18.3283 9.44364L15.0002 13.4113L11.6754 9.44699L9.46219 9.43694C9.31487 9.43694 9.19434 9.55413 9.19434 9.7048C9.19434 9.76842 9.21777 9.82868 9.25795 9.87891L13.614 15.0686L9.25795 20.255C9.21749 20.3041 9.19504 20.3655 9.19434 20.4291C9.19434 20.5765 9.31487 20.697 9.46219 20.697L11.6754 20.6869L15.0002 16.7193L18.3249 20.6836L20.5348 20.6936C20.6821 20.6936 20.8026 20.5765 20.8026 20.4258C20.8026 20.3622 20.7792 20.3019 20.739 20.2517L16.3897 15.0653L20.7457 9.87556C20.7859 9.82868 20.806 9.76507 20.806 9.70145Z" fill="black"/>
</svg>
