<svg width="24" height="19" viewBox="0 0 24 19" fill="none" xmlns="http://www.w3.org/2000/svg">
<path fill-rule="evenodd" clip-rule="evenodd" d="M11.9987 2.75538L10.8381 1.63563C9.73273 0.593334 8.24597 0.013582 6.70038 0.0221454C5.15479 0.0307087 3.67503 0.626897 2.58211 1.68137C1.4892 2.73585 0.871277 4.16357 0.862402 5.6548C0.853526 7.14603 1.45441 8.5805 2.5347 9.64701L11.9713 18.7508L11.9996 18.7782L21.4353 9.67435C22.5289 8.61053 23.1412 7.17205 23.1382 5.67371C23.1351 4.17537 22.517 2.73921 21.4191 1.67954C20.3211 0.619866 18.8328 0.0229936 17.2799 0.0195463C15.7269 0.016099 14.2358 0.606358 13.1328 1.66114L11.9987 2.75538ZM11.9723 15.8362L17.2416 10.7522L18.7903 9.30899L19.9234 8.21566C20.6247 7.53907 21.0187 6.62141 21.0187 5.66456C21.0187 4.70771 20.6247 3.79005 19.9234 3.11345C19.2222 2.43685 18.2711 2.05675 17.2793 2.05675C16.2876 2.05675 15.3365 2.43685 14.6352 3.11345L11.9911 5.66456L11.9836 5.65727L9.3291 3.09249C8.62784 2.4159 7.67673 2.03579 6.685 2.03579C5.69327 2.03579 4.74216 2.4159 4.0409 3.09249C3.33964 3.76909 2.94567 4.68675 2.94567 5.6436C2.94567 6.60045 3.33964 7.51811 4.0409 8.19471L6.75582 10.8059L11.9723 15.8362Z" fill="#FF0000"/>
<path d="M11.9723 15.8362L17.2416 10.7522L18.7903 9.30899L19.9234 8.21566C20.6247 7.53907 21.0187 6.62141 21.0187 5.66456C21.0187 4.70771 20.6247 3.79005 19.9234 3.11345C19.2222 2.43685 18.2711 2.05675 17.2793 2.05675C16.2876 2.05675 15.3365 2.43685 14.6352 3.11345L11.9911 5.66456L11.9836 5.65727L9.3291 3.09249C8.62784 2.4159 7.67673 2.03579 6.685 2.03579C5.69327 2.03579 4.74216 2.4159 4.0409 3.09249C3.33964 3.76909 2.94567 4.68675 2.94567 5.6436C2.94567 6.60045 3.33964 7.51811 4.0409 8.19471L6.75582 10.8059L11.9723 15.8362Z" fill="#FF0000"/>
</svg>
