<svg width="30" height="30" viewBox="0 0 30 30" fill="none" xmlns="http://www.w3.org/2000/svg">
<path fill-rule="evenodd" clip-rule="evenodd" d="M15 28.125C18.481 28.125 21.8194 26.7422 24.2808 24.2808C26.7422 21.8194 28.125 18.481 28.125 15C28.125 11.519 26.7422 8.18064 24.2808 5.71922C21.8194 3.25781 18.481 1.875 15 1.875C11.519 1.875 8.18064 3.25781 5.71922 5.71922C3.25781 8.18064 1.875 11.519 1.875 15C1.875 18.481 3.25781 21.8194 5.71922 24.2808C8.18064 26.7422 11.519 28.125 15 28.125ZM15 30C18.9782 30 22.7936 28.4196 25.6066 25.6066C28.4196 22.7936 30 18.9782 30 15C30 11.0218 28.4196 7.20644 25.6066 4.3934C22.7936 1.58035 18.9782 0 15 0C11.0218 0 7.20644 1.58035 4.3934 4.3934C1.58035 7.20644 0 11.0218 0 15C0 18.9782 1.58035 22.7936 4.3934 25.6066C7.20644 28.4196 11.0218 30 15 30Z" fill="black"/>
<path fill-rule="evenodd" clip-rule="evenodd" d="M18.7063 21.7031C18.7994 21.6103 18.8733 21.5 18.9237 21.3786C18.9741 21.2571 19 21.1269 19 20.9955C19 20.864 18.9741 20.7338 18.9237 20.6124C18.8733 20.4909 18.7994 20.3806 18.7063 20.2878L13.4147 14.9981L18.7063 9.7085C18.7993 9.61557 18.873 9.50524 18.9233 9.38381C18.9736 9.26239 18.9995 9.13225 18.9995 9.00082C18.9995 8.86939 18.9736 8.73924 18.9233 8.61782C18.873 8.4964 18.7993 8.38607 18.7063 8.29313C18.6134 8.2002 18.5031 8.12648 18.3817 8.07618C18.2602 8.02589 18.1301 8 17.9987 8C17.8672 8 17.7371 8.02589 17.6157 8.07618C17.4942 8.12648 17.3839 8.2002 17.291 8.29313L11.2937 14.2905C11.2006 14.3833 11.1267 14.4936 11.0763 14.615C11.0259 14.7365 11 14.8667 11 14.9981C11 15.1296 11.0259 15.2598 11.0763 15.3812C11.1267 15.5027 11.2006 15.613 11.2937 15.7058L17.291 21.7031C17.3838 21.7962 17.4941 21.8701 17.6156 21.9205C17.737 21.9709 17.8672 21.9968 17.9987 21.9968C18.1301 21.9968 18.2603 21.9709 18.3818 21.9205C18.5032 21.8701 18.6135 21.7962 18.7063 21.7031Z" fill="black"/>
</svg>
