<svg width="31" height="30" viewBox="0 0 31 30" fill="none" xmlns="http://www.w3.org/2000/svg">
<path fill-rule="evenodd" clip-rule="evenodd" d="M15.8242 28.125C19.3052 28.125 22.6436 26.7422 25.105 24.2808C27.5664 21.8194 28.9492 18.481 28.9492 15C28.9492 11.519 27.5664 8.18064 25.105 5.71922C22.6436 3.25781 19.3052 1.875 15.8242 1.875C12.3433 1.875 9.00486 3.25781 6.54344 5.71922C4.08203 8.18064 2.69922 11.519 2.69922 15C2.69922 18.481 4.08203 21.8194 6.54344 24.2808C9.00486 26.7422 12.3433 28.125 15.8242 28.125ZM15.8242 30C19.8025 30 23.6178 28.4196 26.4308 25.6066C29.2439 22.7936 30.8242 18.9782 30.8242 15C30.8242 11.0218 29.2439 7.20644 26.4308 4.3934C23.6178 1.58035 19.8025 0 15.8242 0C11.846 0 8.03066 1.58035 5.21762 4.3934C2.40457 7.20644 0.824219 11.0218 0.824219 15C0.824219 18.9782 2.40457 22.7936 5.21762 25.6066C8.03066 28.4196 11.846 30 15.8242 30Z" fill="black"/>
<path fill-rule="evenodd" clip-rule="evenodd" d="M12.1179 21.7031C12.0248 21.6103 11.9509 21.5 11.9005 21.3786C11.8502 21.2571 11.8242 21.1269 11.8242 20.9955C11.8242 20.864 11.8502 20.7338 11.9005 20.6124C11.9509 20.4909 12.0248 20.3806 12.1179 20.2878L17.4095 14.9981L12.1179 9.7085C12.0249 9.61557 11.9512 9.50524 11.9009 9.38381C11.8506 9.26239 11.8247 9.13225 11.8247 9.00082C11.8247 8.86939 11.8506 8.73924 11.9009 8.61782C11.9512 8.4964 12.0249 8.38607 12.1179 8.29313C12.2108 8.2002 12.3211 8.12648 12.4426 8.07618C12.564 8.02589 12.6941 8 12.8256 8C12.957 8 13.0871 8.02589 13.2086 8.07618C13.33 8.12648 13.4403 8.2002 13.5332 8.29313L19.5306 14.2905C19.6236 14.3833 19.6975 14.4936 19.7479 14.615C19.7983 14.7365 19.8242 14.8667 19.8242 14.9981C19.8242 15.1296 19.7983 15.2598 19.7479 15.3812C19.6975 15.5027 19.6236 15.613 19.5306 15.7058L13.5332 21.7031C13.4404 21.7962 13.3301 21.8701 13.2087 21.9205C13.0872 21.9709 12.957 21.9968 12.8256 21.9968C12.6941 21.9968 12.5639 21.9709 12.4425 21.9205C12.321 21.8701 12.2107 21.7962 12.1179 21.7031Z" fill="black"/>
</svg>
