<svg width="39" height="39" viewBox="0 0 39 39" fill="none" xmlns="http://www.w3.org/2000/svg">
<rect x="0.152344" y="0.0195312" width="37.9991" height="37.9991" fill="#131313"/>
<path d="M15.3073 17.434L17.5668 15.1745L12.7249 10.3325L14.8231 8.23438H8.36719V14.6903L10.4654 12.5921L15.3073 17.434Z" fill="white"/>
<path d="M17.5668 23.8924L15.3073 21.6328L10.4654 26.4747L8.36719 24.3766V30.8325H14.8231L12.7249 28.7343L17.5668 23.8924Z" fill="white"/>
<path d="M24.0232 21.6328L21.7637 23.8924L26.6056 28.7343L24.5074 30.8325H30.9633V24.3766L28.8652 26.4747L24.0232 21.6328Z" fill="white"/>
<path d="M24.5074 8.23438L26.6056 10.3325L21.7637 15.1745L24.0232 17.434L28.8652 12.5921L30.9633 14.6903V8.23438H24.5074Z" fill="white"/>
</svg>
