<svg width="30" height="30" viewBox="0 0 30 30" fill="none" xmlns="http://www.w3.org/2000/svg">
<path d="M20.8059 9.70145C20.8059 9.55413 20.6854 9.43359 20.5381 9.43359L18.3283 9.44364L15.0001 13.4113L11.6754 9.44699L9.46219 9.43694C9.31487 9.43694 9.19434 9.55413 9.19434 9.7048C9.19434 9.76842 9.21777 9.82868 9.25795 9.87891L13.614 15.0686L9.25795 20.255C9.21749 20.3041 9.19504 20.3655 9.19434 20.4291C9.19434 20.5765 9.31487 20.697 9.46219 20.697L11.6754 20.6869L15.0001 16.7193L18.3249 20.6836L20.5347 20.6936C20.6821 20.6936 20.8026 20.5765 20.8026 20.4258C20.8026 20.3622 20.7792 20.3019 20.739 20.2517L16.3896 15.0653L20.7457 9.87556C20.7859 9.82868 20.8059 9.76507 20.8059 9.70145Z" fill="white"/>
<path d="M15 0C6.71652 0 0 6.71652 0 15C0 23.2835 6.71652 30 15 30C23.2835 30 30 23.2835 30 15C30 6.71652 23.2835 0 15 0ZM15 27.4554C8.12277 27.4554 2.54464 21.8772 2.54464 15C2.54464 8.12277 8.12277 2.54464 15 2.54464C21.8772 2.54464 27.4554 8.12277 27.4554 15C27.4554 21.8772 21.8772 27.4554 15 27.4554Z" fill="white"/>
</svg>
