<svg width="34" height="34" viewBox="0 0 34 34" fill="none" xmlns="http://www.w3.org/2000/svg">
<path fill-rule="evenodd" clip-rule="evenodd" d="M17 1C19.2083 1 21.2864 1.41666 23.2344 2.25C25.1823 3.08334 26.8802 4.22395 28.3281 5.67188C29.776 7.1198 30.9167 8.8177 31.75 10.7656C32.5833 12.7136 33 14.7917 33 17C33 19.2083 32.5833 21.2864 31.75 23.2344C30.9167 25.1823 29.776 26.8802 28.3281 28.3281C26.8802 29.776 25.1823 30.9167 23.2344 31.75C21.2864 32.5833 19.2083 33 17 33C14.7917 33 12.7136 32.5833 10.7656 31.75C8.8177 30.9167 7.1198 29.776 5.67188 28.3281C4.22395 26.8802 3.08334 25.1823 2.25 23.2344C1.41666 21.2864 1 19.2083 1 17C1 14.7917 1.41666 12.7136 2.25 10.7656C3.08334 8.8177 4.22395 7.1198 5.67188 5.67188C7.1198 4.22395 8.8177 3.08334 10.7656 2.25C12.7136 1.41666 14.7917 1 17 1ZM17 31.0312C18.9375 31.0312 20.7552 30.6615 22.4531 29.9219C24.1511 29.1823 25.6302 28.1771 26.8906 26.9062C28.151 25.6354 29.151 24.1511 29.8906 22.4531C30.6302 20.7552 31 18.9375 31 17C31 15.0625 30.6302 13.2448 29.8906 11.5469C29.151 9.84895 28.151 8.3698 26.8906 7.10938C25.6302 5.84895 24.1511 4.84896 22.4531 4.10938C20.7552 3.36979 18.9375 3 17 3C15.0625 3 13.2448 3.36979 11.5469 4.10938C9.84895 4.84896 8.3698 5.84895 7.10938 7.10938C5.84895 8.3698 4.84896 9.84895 4.10938 11.5469C3.36979 13.2448 3 15.0625 3 17C3 18.9375 3.36979 20.7552 4.10938 22.4531C4.84896 24.1511 5.84895 25.6354 7.10938 26.9062C8.3698 28.1771 9.84895 29.1823 11.5469 29.9219C13.2448 30.6615 15.0625 31.0312 17 31.0312ZM23.375 11.1562C23.5833 10.9479 23.8229 10.8438 24.0938 10.8438C24.3646 10.8438 24.6042 10.9479 24.8125 11.1562C25 11.3438 25.0938 11.5781 25.0938 11.8594C25.0938 12.1406 25 12.375 24.8125 12.5625L14.8438 22.5938L14.7188 22.7188C14.5312 22.9271 14.2969 23.0312 14.0156 23.0312C13.7344 23.0312 13.5 22.9271 13.3125 22.7188L8.34375 17.7812C8.15625 17.5938 8.0625 17.3594 8.0625 17.0781C8.0625 16.7969 8.15625 16.5625 8.34375 16.375C8.55208 16.1667 8.79167 16.0625 9.0625 16.0625C9.33333 16.0625 9.57292 16.1667 9.78125 16.375L14 20.5938L23.375 11.1562Z" fill="#67B930"/>
<path d="M23.375 11.1562L23.1629 10.9441L23.1622 10.9448L23.375 11.1562ZM24.8125 12.5625L24.6004 12.3504L24.5997 12.351L24.8125 12.5625ZM14.8438 22.5938L15.0559 22.8059L15.0565 22.8052L14.8438 22.5938ZM14.7188 22.7188L14.5066 22.5066L14.501 22.5122L14.4958 22.5181L14.7188 22.7188ZM13.3125 22.7188L13.5355 22.5181L13.5299 22.5118L13.524 22.5059L13.3125 22.7188ZM8.34375 17.7812L8.13162 17.9934L8.13229 17.9941L8.34375 17.7812ZM14 20.5938L13.7879 20.8059L14.0007 21.0187L14.2128 20.8052L14 20.5938ZM17 1.3C19.1695 1.3 21.2073 1.70911 23.1164 2.52582L23.3524 1.97418C21.3656 1.12421 19.2472 0.7 17 0.7V1.3ZM23.1164 2.52582C25.0304 3.34465 26.696 4.46406 28.116 5.88401L28.5403 5.45974C27.0644 3.98385 25.3342 2.82202 23.3524 1.97418L23.1164 2.52582ZM28.116 5.88401C29.5359 7.30396 30.6553 8.9696 31.4742 10.8836L32.0258 10.6476C31.178 8.66579 30.0162 6.93564 28.5403 5.45974L28.116 5.88401ZM31.4742 10.8836C32.2909 12.7927 32.7 14.8305 32.7 17H33.3C33.3 14.7528 32.8758 12.6344 32.0258 10.6476L31.4742 10.8836ZM32.7 17C32.7 19.1695 32.2909 21.2073 31.4742 23.1164L32.0258 23.3524C32.8758 21.3656 33.3 19.2472 33.3 17H32.7ZM31.4742 23.1164C30.6553 25.0304 29.5359 26.696 28.116 28.116L28.5403 28.5403C30.0162 27.0644 31.178 25.3342 32.0258 23.3524L31.4742 23.1164ZM28.116 28.116C26.696 29.5359 25.0304 30.6553 23.1164 31.4742L23.3524 32.0258C25.3342 31.178 27.0644 30.0162 28.5403 28.5403L28.116 28.116ZM23.1164 31.4742C21.2073 32.2909 19.1695 32.7 17 32.7V33.3C19.2472 33.3 21.3656 32.8758 23.3524 32.0258L23.1164 31.4742ZM17 32.7C14.8305 32.7 12.7927 32.2909 10.8836 31.4742L10.6476 32.0258C12.6344 32.8758 14.7528 33.3 17 33.3V32.7ZM10.8836 31.4742C8.9696 30.6553 7.30396 29.5359 5.88401 28.116L5.45974 28.5403C6.93564 30.0162 8.66579 31.178 10.6476 32.0258L10.8836 31.4742ZM5.88401 28.116C4.46406 26.696 3.34465 25.0304 2.52582 23.1164L1.97418 23.3524C2.82202 25.3342 3.98385 27.0644 5.45974 28.5403L5.88401 28.116ZM2.52582 23.1164C1.70911 21.2073 1.3 19.1695 1.3 17H0.7C0.7 19.2472 1.12421 21.3656 1.97418 23.3524L2.52582 23.1164ZM1.3 17C1.3 14.8305 1.70911 12.7927 2.52582 10.8836L1.97418 10.6476C1.12421 12.6344 0.7 14.7528 0.7 17H1.3ZM2.52582 10.8836C3.34465 8.9696 4.46406 7.30396 5.88401 5.88401L5.45974 5.45974C3.98385 6.93564 2.82202 8.66579 1.97418 10.6476L2.52582 10.8836ZM5.88401 5.88401C7.30396 4.46406 8.9696 3.34465 10.8836 2.52582L10.6476 1.97418C8.66579 2.82202 6.93564 3.98385 5.45974 5.45974L5.88401 5.88401ZM10.8836 2.52582C12.7927 1.70911 14.8305 1.3 17 1.3V0.7C14.7528 0.7 12.6344 1.12421 10.6476 1.97418L10.8836 2.52582ZM17 31.3312C18.9768 31.3312 20.8355 30.9537 22.5729 30.1969L22.3333 29.6468C20.6749 30.3692 18.8982 30.7313 17 30.7313V31.3312ZM22.5729 30.1969C24.3044 29.4427 25.8155 28.4163 27.1036 27.1175L26.6776 26.695C25.4449 27.9379 23.9977 28.9219 22.3333 29.6468L22.5729 30.1969ZM27.1036 27.1175C28.3911 25.8194 29.4118 24.3037 30.1657 22.5729L29.6156 22.3333C28.8903 23.9984 27.911 25.4514 26.6776 26.695L27.1036 27.1175ZM30.1657 22.5729C30.9225 20.8355 31.3 18.9768 31.3 17H30.7C30.7 18.8982 30.3379 20.6749 29.6156 22.3333L30.1657 22.5729ZM31.3 17C31.3 15.0232 30.9225 13.1645 30.1657 11.4271L29.6156 11.6667C30.3379 13.3251 30.7 15.1018 30.7 17H31.3ZM30.1657 11.4271C29.4117 9.69607 28.3908 8.18527 27.1028 6.89724L26.6785 7.32151C27.9113 8.55433 28.8904 10.0018 29.6156 11.6667L30.1657 11.4271ZM27.1028 6.89724C25.8147 5.60922 24.3039 4.58833 22.5729 3.83433L22.3333 4.38442C23.9982 5.10959 25.4457 6.08868 26.6785 7.32151L27.1028 6.89724ZM22.5729 3.83433C20.8355 3.07753 18.9768 2.7 17 2.7V3.3C18.8982 3.3 20.6749 3.66205 22.3333 4.38442L22.5729 3.83433ZM17 2.7C15.0232 2.7 13.1645 3.07753 11.4271 3.83433L11.6667 4.38442C13.3251 3.66205 15.1018 3.3 17 3.3V2.7ZM11.4271 3.83433C9.69607 4.58833 8.18527 5.60922 6.89724 6.89724L7.32151 7.32151C8.55433 6.08868 10.0018 5.10959 11.6667 4.38442L11.4271 3.83433ZM6.89724 6.89724C5.60922 8.18527 4.58833 9.69607 3.83433 11.4271L4.38442 11.6667C5.10959 10.0018 6.08868 8.55433 7.32151 7.32151L6.89724 6.89724ZM3.83433 11.4271C3.07753 13.1645 2.7 15.0232 2.7 17H3.3C3.3 15.1018 3.66205 13.3251 4.38442 11.6667L3.83433 11.4271ZM2.7 17C2.7 18.9768 3.07753 20.8355 3.83433 22.5729L4.38442 22.3333C3.66205 20.6749 3.3 18.8982 3.3 17H2.7ZM3.83433 22.5729C4.58824 24.3037 5.60888 25.8194 6.89637 27.1175L7.32238 26.695C6.08903 25.4514 5.10969 23.9984 4.38442 22.3333L3.83433 22.5729ZM6.89637 27.1175C8.18447 28.4163 9.69555 29.4427 11.4271 30.1969L11.6667 29.6468C10.0023 28.9219 8.55512 27.9379 7.32238 26.695L6.89637 27.1175ZM11.4271 30.1969C13.1645 30.9537 15.0232 31.3312 17 31.3312V30.7313C15.1018 30.7313 13.3251 30.3692 11.6667 29.6468L11.4271 30.1969ZM23.5871 11.3684C23.7447 11.2109 23.9099 11.1438 24.0938 11.1438V10.5437C23.736 10.5437 23.422 10.685 23.1629 10.9441L23.5871 11.3684ZM24.0938 11.1438C24.2776 11.1438 24.4428 11.2109 24.6004 11.3684L25.0246 10.9441C24.7655 10.685 24.4515 10.5437 24.0938 10.5437V11.1438ZM24.6004 11.3684C24.7279 11.4959 24.7938 11.6523 24.7938 11.8594H25.3937C25.3937 11.5039 25.2721 11.1916 25.0246 10.9441L24.6004 11.3684ZM24.7938 11.8594C24.7938 12.0664 24.7279 12.2228 24.6004 12.3504L25.0246 12.7746C25.2721 12.5272 25.3937 12.2148 25.3937 11.8594H24.7938ZM24.5997 12.351L14.631 22.3823L15.0565 22.8052L25.0253 12.774L24.5997 12.351ZM14.6316 22.3816L14.5066 22.5066L14.9309 22.9309L15.0559 22.8059L14.6316 22.3816ZM14.4958 22.5181C14.3654 22.6629 14.2122 22.7313 14.0156 22.7313V23.3312C14.3816 23.3312 14.6971 23.1912 14.9417 22.9194L14.4958 22.5181ZM14.0156 22.7313C13.8191 22.7313 13.6659 22.6629 13.5355 22.5181L13.0895 22.9194C13.3341 23.1912 13.6497 23.3312 14.0156 23.3312V22.7313ZM13.524 22.5059L8.55521 17.5684L8.13229 17.9941L13.101 22.9316L13.524 22.5059ZM8.55588 17.5691C8.42832 17.4416 8.3625 17.2852 8.3625 17.0781H7.7625C7.7625 17.4336 7.88418 17.7459 8.13162 17.9934L8.55588 17.5691ZM8.3625 17.0781C8.3625 16.8711 8.42832 16.7147 8.55588 16.5871L8.13162 16.1629C7.88418 16.4103 7.7625 16.7227 7.7625 17.0781H8.3625ZM8.55588 16.5871C8.7134 16.4296 8.87862 16.3625 9.0625 16.3625V15.7625C8.70471 15.7625 8.39077 15.9037 8.13162 16.1629L8.55588 16.5871ZM9.0625 16.3625C9.24638 16.3625 9.4116 16.4296 9.56912 16.5871L9.99338 16.1629C9.73423 15.9037 9.42029 15.7625 9.0625 15.7625V16.3625ZM9.56912 16.5871L13.7879 20.8059L14.2121 20.3816L9.99338 16.1629L9.56912 16.5871ZM14.2128 20.8052L23.5878 11.3677L23.1622 10.9448L13.7872 20.3823L14.2128 20.8052Z" fill="#EDF5E6"/>
</svg>
