<svg width="14" height="9" viewBox="0 0 14 9" fill="none" xmlns="http://www.w3.org/2000/svg">
<path d="M6.66929 8.28297C6.89116 8.28346 7.10617 8.19504 7.27701 8.03306L12.9744 2.60033C13.1683 2.4159 13.2902 2.15088 13.3134 1.86357C13.3365 1.57626 13.259 1.29019 13.0978 1.0683C12.9366 0.846407 12.705 0.706869 12.4539 0.680379C12.2028 0.653889 11.9528 0.742618 11.7589 0.927047L6.66929 5.79477L1.57966 1.1009C1.48253 1.01064 1.37077 0.94324 1.25081 0.902569C1.13084 0.861897 1.00503 0.848757 0.880614 0.863902C0.756196 0.879048 0.635618 0.92218 0.525815 0.990822C0.416011 1.05946 0.319145 1.15226 0.240786 1.26388C0.153825 1.3756 0.0879641 1.50666 0.0473299 1.64886C0.0066967 1.79106 -0.00783443 1.94133 0.00464535 2.09026C0.0171251 2.23919 0.0563478 2.38356 0.119858 2.51433C0.183367 2.6451 0.269794 2.75946 0.373725 2.85023L6.07107 8.09825C6.24682 8.23463 6.45744 8.29967 6.66929 8.28297Z" fill="#7B7B7B"/>
</svg>
