<svg width="18" height="17" viewBox="0 0 18 17" fill="none" xmlns="http://www.w3.org/2000/svg">
<path fill-rule="evenodd" clip-rule="evenodd" d="M8.80351 3.16081L7.8939 2.24124C7.02753 1.38528 5.86226 0.909177 4.65088 0.916209C3.4395 0.923242 2.27971 1.41285 1.42312 2.27881C0.566532 3.14477 0.0822276 4.31725 0.0752713 5.54188C0.068315 6.76652 0.539268 7.94454 1.38596 8.82039L8.78205 16.2967L8.80425 16.3191L16.1996 8.84283C17.0567 7.96921 17.5366 6.78789 17.5342 5.55741C17.5318 4.32694 17.0474 3.14753 16.1869 2.2773C15.3264 1.40707 14.1599 0.916906 12.9427 0.914075C11.7256 0.911244 10.5569 1.39598 9.6924 2.26219L8.80351 3.16081ZM8.78279 13.9031L12.9127 9.72799L14.1265 8.5428L15.0147 7.64493C15.5643 7.08929 15.8731 6.33568 15.8731 5.5499C15.8731 4.76411 15.5643 4.0105 15.0147 3.45486C14.465 2.89923 13.7196 2.58707 12.9423 2.58707C12.165 2.58707 11.4196 2.89923 10.8699 3.45486L8.79759 5.5499L8.79167 5.54391L6.71117 3.43766C6.16155 2.88202 5.4161 2.56987 4.63882 2.56987C3.86154 2.56987 3.11609 2.88202 2.56647 3.43766C2.01684 3.99329 1.70807 4.7469 1.70807 5.53269C1.70807 6.31848 2.01684 7.07208 2.56647 7.62772L4.69433 9.77213L8.78279 13.9031Z" fill="black"/>
</svg>
