<svg width="8" height="14" viewBox="0 0 8 14" fill="none" xmlns="http://www.w3.org/2000/svg">
<path d="M0.221918 7.35191C0.221422 7.57377 0.30984 7.78879 0.471823 7.95962L5.90455 13.657C6.08898 13.8509 6.354 13.9728 6.64132 13.996C6.92863 14.0191 7.21469 13.9416 7.43658 13.7804C7.65848 13.6192 7.79801 13.3876 7.8245 13.1365C7.85099 12.8855 7.76226 12.6355 7.57784 12.4415L2.71011 7.35191L7.40399 2.26228C7.49424 2.16515 7.56164 2.05339 7.60231 1.93342C7.64299 1.81346 7.65613 1.68765 7.64098 1.56323C7.62584 1.43881 7.5827 1.31824 7.51406 1.20843C7.44542 1.09863 7.35262 1.00176 7.24101 0.923403C7.12929 0.836442 6.99822 0.770581 6.85602 0.729947C6.71382 0.689314 6.56355 0.674783 6.41462 0.687262C6.2657 0.699742 6.12133 0.738965 5.99055 0.802475C5.85978 0.865984 5.74542 0.952412 5.65465 1.05634L0.406631 6.75369C0.270252 6.92943 0.205217 7.14006 0.221918 7.35191Z" fill="black"/>
</svg>
