<svg width="8" height="14" viewBox="0 0 8 14" fill="none" xmlns="http://www.w3.org/2000/svg">
<path d="M7.77808 6.64809C7.77858 6.42623 7.69016 6.21121 7.52818 6.04038L2.09545 0.34303C1.91102 0.149114 1.646 0.0271681 1.35868 0.00401811C1.07137 -0.0191319 0.785306 0.0584108 0.563415 0.219587C0.341524 0.380764 0.201986 0.612372 0.175496 0.86346C0.149006 1.11455 0.237735 1.36455 0.422164 1.55846L5.28989 6.64809L0.596012 11.7377C0.505757 11.8348 0.438357 11.9466 0.397685 12.0666C0.357014 12.1865 0.343873 12.3123 0.359019 12.4368C0.374165 12.5612 0.417297 12.6818 0.485938 12.7916C0.55458 12.9014 0.647376 12.9982 0.758993 13.0766C0.870714 13.1636 1.00178 13.2294 1.14398 13.2701C1.28618 13.3107 1.43645 13.3252 1.58538 13.3127C1.7343 13.3003 1.87867 13.261 2.00945 13.1975C2.14022 13.134 2.25458 13.0476 2.34535 12.9437L7.59337 7.24631C7.72975 7.07057 7.79478 6.85994 7.77808 6.64809Z" fill="black"/>
</svg>
