<svg width="14" height="9" viewBox="0 0 14 9" fill="none" xmlns="http://www.w3.org/2000/svg">
<path d="M6.64809 0.677972C6.42623 0.677476 6.21121 0.765894 6.04038 0.927877L0.34303 6.36061C0.149114 6.54504 0.027168 6.81006 0.00401805 7.09737C-0.0191319 7.38468 0.0584108 7.67075 0.219587 7.89264C0.380764 8.11453 0.612372 8.25407 0.86346 8.28056C1.11455 8.30705 1.36455 8.21832 1.55846 8.03389L6.64809 3.16616L11.7377 7.86004C11.8348 7.9503 11.9466 8.0177 12.0666 8.05837C12.1865 8.09904 12.3123 8.11218 12.4368 8.09704C12.5612 8.08189 12.6818 8.03876 12.7916 7.97012C12.9014 7.90147 12.9982 7.80868 13.0766 7.69706C13.1636 7.58534 13.2294 7.45427 13.2701 7.31207C13.3107 7.16987 13.3252 7.0196 13.3127 6.87068C13.3003 6.72175 13.261 6.57738 13.1975 6.44661C13.134 6.31583 13.0476 6.20148 12.9437 6.1107L7.24631 0.862685C7.07057 0.726306 6.85994 0.661271 6.64809 0.677972Z" fill="#7B7B7B"/>
</svg>
