<svg width="40" height="33" viewBox="0 0 40 33" fill="none" xmlns="http://www.w3.org/2000/svg">
<path d="M2.15377 0.675781C1.13694 0.675781 0.307617 1.50511 0.307617 2.52194V24.6758C0.307617 25.6926 1.13694 26.5219 2.15377 26.5219H16.3076V28.9835H14.8653C14.0432 28.9835 13.2716 29.3032 12.6898 29.8849L10.9494 31.6253C10.774 31.8008 10.7211 32.0652 10.8172 32.296C10.911 32.5267 11.1369 32.6758 11.3845 32.6758H28.6153C28.8629 32.6758 29.0889 32.5267 29.1826 32.296C29.2788 32.0652 29.2259 31.8008 29.0504 31.6253L27.31 29.8849C26.7283 29.3032 25.9567 28.9835 25.1345 28.9835H23.6922V26.5219H37.8461C38.8629 26.5219 39.6922 25.6926 39.6922 24.6758V2.52194C39.6922 1.50511 38.8629 0.675781 37.8461 0.675781H2.15377ZM2.15377 1.90655H37.8461C38.185 1.90655 38.4615 2.18299 38.4615 2.52194V21.5989H36.6153C36.274 21.5989 35.9999 21.8729 35.9999 22.2142C35.9999 22.5556 36.274 22.8296 36.6153 22.8296H38.4615V24.6758C38.4615 25.0147 38.185 25.2912 37.8461 25.2912H2.15377C1.81483 25.2912 1.53839 25.0147 1.53839 24.6758V22.8296H24.3581C24.6994 22.8296 24.9735 22.5556 24.9735 22.2142C24.9735 21.8729 24.6994 21.5989 24.3581 21.5989H1.53839V2.52194C1.53839 2.18299 1.81483 1.90655 2.15377 1.90655ZM3.38454 3.13732C3.04319 3.13732 2.76916 3.41136 2.76916 3.7527C2.76916 4.09405 3.04319 4.36809 3.38454 4.36809H31.6922C32.0336 4.36809 32.3076 4.09405 32.3076 3.7527C32.3076 3.41136 32.0336 3.13732 31.6922 3.13732H3.38454ZM34.1538 3.13732C33.8124 3.13732 33.5384 3.41136 33.5384 3.7527C33.5384 4.09405 33.8124 4.36809 34.1538 4.36809H36.6153C36.9567 4.36809 37.2307 4.09405 37.2307 3.7527C37.2307 3.41136 36.9567 3.13732 36.6153 3.13732H34.1538ZM16.298 6.06761C16.0865 6.0652 15.8725 6.11809 15.6754 6.23107C15.286 6.44982 15.0528 6.85126 15.0528 7.30078V18.6662C15.0528 19.1157 15.286 19.5171 15.6754 19.7383C15.8677 19.8465 16.0744 19.8993 16.2836 19.8993C16.5023 19.8993 16.7187 19.8416 16.9158 19.7239L26.4062 14.0412C26.7812 13.8152 27.0071 13.421 27.0071 12.9835C27.0071 12.5484 26.7812 12.1517 26.4062 11.9258L16.9158 6.24309C16.7235 6.13011 16.5119 6.07001 16.298 6.06761ZM16.286 7.30078L25.7764 12.9835L16.286 18.6686V7.30078ZM27.3845 20.9835C27.0432 20.9835 26.7692 21.2575 26.7692 21.5989V22.8296C26.7692 23.171 27.0432 23.445 27.3845 23.445C27.7259 23.445 27.9999 23.171 27.9999 22.8296V21.5989C27.9999 21.2575 27.7259 20.9835 27.3845 20.9835ZM30.4615 20.9835C30.1201 20.9835 29.8461 21.2575 29.8461 21.5989V22.8296C29.8461 23.171 30.1201 23.445 30.4615 23.445C30.8028 23.445 31.0768 23.171 31.0768 22.8296V21.5989C31.0768 21.2575 30.8028 20.9835 30.4615 20.9835ZM33.5384 20.9835C33.197 20.9835 32.923 21.2575 32.923 21.5989V22.8296C32.923 23.171 33.197 23.445 33.5384 23.445C33.8797 23.445 34.1538 23.171 34.1538 22.8296V21.5989C34.1538 21.2575 33.8797 20.9835 33.5384 20.9835ZM17.5384 26.5219H22.4615V28.9835H17.5384V26.5219ZM14.8653 30.2142H25.1345C25.6273 30.2142 26.0913 30.4066 26.4398 30.7551L27.1297 31.445H12.8701L13.56 30.7551C13.9086 30.4066 14.3725 30.2142 14.8653 30.2142Z" fill="#7B7B7B"/>
</svg>
