<svg width="98" height="98" viewBox="0 0 98 98" fill="none" xmlns="http://www.w3.org/2000/svg">
<g clip-path="url(#clip0)">
<path d="M76.7488 84.392C75.695 84.392 74.4656 84.0424 73.5875 83.5181L56.5517 72.3325C56.2004 72.1577 55.8491 71.6334 55.8491 71.2839C55.6735 70.7595 55.8491 70.41 56.0248 70.0604C56.376 69.5361 56.9029 69.3613 57.4298 69.3613C57.781 69.3613 58.1323 69.5361 58.3079 69.7109L75.5194 80.8965C75.8707 81.0713 76.3975 81.246 76.7488 81.246C76.9244 81.246 77.1 81.246 77.2757 81.246C77.9782 81.0713 78.5051 80.7217 78.8563 80.0226C79.5588 78.974 79.0319 77.5758 77.9782 76.8767L54.0929 62.0208C53.0391 61.3217 51.9853 61.1469 50.756 61.1469H40.0427V63.5938C40.0427 66.5649 37.5839 69.0118 34.5983 69.0118C31.6126 69.0118 29.1538 66.5649 29.1538 63.5938V54.855C29.1538 53.4568 30.0319 52.0586 31.437 51.3595L41.2721 46.8154C41.4477 46.6406 41.799 46.6406 41.9746 46.6406H68.4943C69.3724 46.6406 70.2506 47.3397 70.2506 48.3884C70.2506 49.437 69.5481 50.1361 68.4943 50.1361H42.1502L32.6664 54.5055C32.4907 54.5055 32.3151 54.6803 32.3151 54.855V63.419C32.3151 64.6424 33.1932 65.5163 34.4226 65.5163C35.652 65.5163 36.5302 64.6424 36.5302 63.419V59.2244C36.5302 58.3505 37.2327 57.4767 38.2864 57.4767H50.9316C52.6879 57.4767 54.4441 58.001 56.0248 58.8749L79.9101 73.7307C82.5445 75.3037 83.4226 78.7992 81.842 81.4208C81.1395 82.819 79.7345 83.8676 78.1538 84.2172C77.8026 84.392 77.2757 84.392 76.7488 84.392Z" fill="black"/>
<path d="M66.9145 88.4109C65.6851 88.4109 64.6313 88.0614 63.5776 87.3623L51.4593 79.3227C50.7568 78.7983 50.4055 77.7497 50.9324 77.0506C51.2836 76.5263 51.8105 76.3515 52.3374 76.3515C52.6887 76.3515 53.0399 76.5263 53.2155 76.701L65.3338 84.7407C65.8607 85.0902 66.212 85.265 66.7388 85.265C66.9145 85.265 67.0901 85.265 67.2657 85.265C67.9682 85.0902 68.4951 84.7407 69.022 84.0416C69.7245 82.8182 69.3733 81.2452 68.3195 80.3713L57.255 73.2055C56.9037 73.0308 56.5525 72.5064 56.5525 72.1569C56.3768 71.6326 56.5525 71.283 56.7281 70.9335C57.0793 70.4092 57.6062 70.2344 58.1331 70.2344C58.4844 70.2344 58.8356 70.4092 59.0112 70.5839L70.0758 77.7497C72.8858 79.4974 73.5883 83.3425 71.832 85.9641C70.9539 87.3623 69.5489 88.2362 67.9682 88.5857C67.7926 88.2362 67.2657 88.4109 66.9145 88.4109Z" fill="black"/>
<path d="M58.6592 93.1313C57.4298 93.1313 56.3761 92.7818 55.4979 92.2574L47.2435 86.8394C46.5409 86.3151 46.1897 85.2664 46.7166 84.5673C47.0678 84.043 47.5947 83.8682 48.1216 83.8682C48.4728 83.8682 48.8241 84.043 48.9997 84.2178L57.2542 89.6358C57.6055 89.9854 58.1323 89.9854 58.6592 89.9854C59.5374 89.9854 60.2399 89.6358 60.7667 88.9367C61.118 88.4124 61.2936 87.7133 61.2936 87.0142C61.118 86.3151 60.7668 85.616 60.2399 85.2664L54.7954 81.5962C54.4442 81.4214 54.0929 80.8971 54.0929 80.5475C54.0929 80.0232 54.0929 79.6737 54.2685 79.3241C54.6198 78.7998 55.1467 78.625 55.6736 78.625C56.0248 78.625 56.3761 78.7998 56.5517 78.9746L61.9961 82.6448C63.4012 83.5187 64.2793 84.9169 64.6305 86.6646C64.9818 88.2376 64.4549 89.9854 63.5768 91.2088C62.3474 92.2574 60.4155 93.1313 58.6592 93.1313Z" fill="black"/>
<path d="M48.4734 96.453C47.4196 96.453 46.3659 96.1034 45.4877 95.5791L44.434 95.0548C44.0827 94.88 43.7314 94.5305 43.7314 94.0061C43.7314 93.4818 43.7314 93.1323 43.9071 92.7827C44.2583 92.2584 44.7852 91.9088 45.3121 91.9088C45.6633 91.9088 46.0146 91.9088 46.1902 92.0836L47.0684 92.6079C47.4196 92.7827 47.9465 92.9575 48.2978 92.9575C49.1759 92.9575 49.8784 92.6079 50.2297 91.9088C50.5809 91.3845 50.7565 90.6854 50.5809 89.9863C50.4053 89.2872 50.054 88.7629 49.5271 88.4133L47.4196 87.1899C47.0684 87.0151 46.7171 86.4908 46.7171 86.1413C46.5415 85.617 46.7171 85.2674 46.8927 84.9179C47.244 84.3935 47.7709 84.2188 48.2978 84.2188C48.649 84.2188 49.0003 84.3935 49.1759 84.5683L51.2834 85.7917C52.6884 86.6656 53.5666 88.0638 53.9178 89.6368C54.2691 91.2097 53.9178 92.7827 52.8641 94.1809C52.1616 95.5791 50.2297 96.453 48.4734 96.453Z" fill="black"/>
<path d="M40.7468 97.6768C39.5174 97.6768 38.288 97.3272 37.4098 96.4534C36.1805 95.5795 35.478 94.1813 35.3023 92.6083C35.1267 91.0353 35.6536 89.6371 36.7073 88.5885L37.0586 88.0642C38.1124 86.8407 39.5174 86.3164 41.098 86.3164C42.3274 86.3164 43.5568 86.666 44.4349 87.5398C45.6643 88.4137 46.3668 89.9867 46.5425 91.3849C46.7181 92.9579 46.1912 94.3561 45.1374 95.4047L44.7862 95.929C43.7324 96.9777 42.3274 97.6768 40.7468 97.6768ZM41.098 89.6371C40.5711 89.6371 39.8686 89.8119 39.5174 90.3362L39.1661 90.8606C38.8149 91.2101 38.6392 91.9092 38.6392 92.4335C38.6392 92.9579 38.9905 93.4822 39.3417 93.8317C39.693 94.1813 40.2199 94.3561 40.5711 94.3561C41.098 94.3561 41.6249 94.1813 42.1518 93.657L42.503 93.1326C42.8543 92.7831 43.0299 92.084 43.0299 91.5597C43.0299 91.0353 42.6787 90.511 42.3274 90.1615C42.1518 89.8119 41.6249 89.6371 41.098 89.6371Z" fill="black"/>
<path d="M33.7214 94.1797C32.492 94.1797 31.2626 93.6554 30.2088 92.9563C28.9794 92.0824 28.2769 90.6842 28.2769 89.1113C28.1013 87.7131 28.6282 86.1401 29.682 85.0914L34.9508 79.1491C36.0045 77.9257 37.4095 77.2266 38.9902 77.2266C40.044 77.2266 41.2733 77.5761 42.1515 78.2752L42.6784 78.7995C43.7321 79.6734 44.259 81.0716 44.4346 82.4698C44.6103 84.0428 44.0834 85.441 43.0296 86.4896L37.7608 92.432C36.707 93.4806 35.302 94.1797 33.7214 94.1797ZM38.9902 80.7221C38.4633 80.7221 37.7608 80.8968 37.4095 81.4212L32.1407 87.3635C31.7895 87.7131 31.6139 88.4122 31.6139 88.9365C31.6139 89.4608 31.9651 89.9851 32.3164 90.3347C32.6676 90.6842 33.1945 90.859 33.7214 90.859C34.2483 90.859 34.9508 90.6842 35.302 90.1599L40.5708 84.2176C40.9221 83.868 41.0977 83.1689 41.0977 82.6446C41.0977 82.1203 40.7465 81.5959 40.3952 81.2464C40.044 80.8968 39.5171 80.7221 38.9902 80.7221Z" fill="black"/>
<path d="M28.6277 88.5876C27.3983 88.5876 26.1689 88.238 25.2908 87.3641C24.0614 86.4903 23.3589 85.0921 23.1833 83.6939C23.0076 82.2957 23.3589 80.7227 24.4127 79.6741L26.1689 77.402C27.2227 76.1786 28.8033 75.3047 30.5596 75.3047C31.789 75.3047 33.0184 75.6542 33.8965 76.5281C35.1259 77.402 35.8284 78.8002 36.0041 80.3731C36.1797 81.9461 35.6528 83.5191 34.599 84.5677L32.6671 86.665C31.6134 87.8885 30.2084 88.5876 28.6277 88.5876ZM30.384 78.8002C29.6815 78.8002 28.979 79.1497 28.6277 79.6741L26.8714 81.9461C26.5202 82.2957 26.3446 82.82 26.3446 83.3443C26.3446 83.8686 26.6958 84.393 27.2227 84.7425C27.5739 85.0921 28.1008 85.2668 28.6277 85.2668C29.3302 85.2668 29.8571 84.9173 30.2084 84.5677L32.1403 82.4704C32.4915 81.9461 32.6671 81.4218 32.6671 80.7227C32.6671 80.0236 32.3159 79.4993 31.789 79.1497C31.4377 78.975 30.9109 78.8002 30.384 78.8002Z" fill="black"/>
<path d="M23.3591 82.9961C22.3053 82.9961 21.076 82.6465 20.1978 81.9474C18.9684 81.0736 18.2659 79.8501 18.0903 78.2772C17.9147 76.7042 18.4415 75.4808 19.3197 74.2573L20.1978 73.3835C21.2516 72.16 22.6566 71.4609 24.2372 71.4609C25.4666 71.4609 26.5204 71.8105 27.3985 72.5096C28.4523 73.3835 29.1548 74.6069 29.3304 76.0051C29.5061 77.4033 29.1548 78.8015 28.2767 79.8501L27.3985 81.0736C26.3448 82.297 24.9398 82.9961 23.3591 82.9961ZM24.0616 74.9564C23.5347 74.9564 23.0079 75.1312 22.6566 75.6555L21.7785 76.5294C21.4272 76.879 21.2516 77.4033 21.4272 77.9276C21.4272 78.4519 21.7785 78.8015 22.1297 79.151C22.481 79.3258 22.8322 79.5006 23.1835 79.5006C23.7104 79.5006 24.2372 79.3258 24.5885 78.8015L25.291 77.7528C25.6423 77.4033 25.8179 76.879 25.6423 76.3546C25.6423 75.8303 25.291 75.4808 24.9398 75.1312C24.9398 75.1312 24.4129 74.9564 24.0616 74.9564Z" fill="black"/>
<path d="M21.4269 76.3516C20.9001 76.3516 20.5488 76.1768 20.1976 75.8273L13.1725 68.4867C12.6456 67.9624 12.47 67.0885 12.9968 66.3894L25.642 48.5624C25.9933 48.0381 26.5201 47.8633 27.047 47.8633H39.3409C40.2191 47.8633 41.0972 48.5624 41.0972 49.611C41.0972 50.6597 40.3947 51.3588 39.3409 51.3588H27.9252L16.5094 67.0885L22.6563 73.3804C23.0076 73.73 23.1832 74.0795 23.1832 74.6038C23.1832 75.1282 23.0076 75.4777 22.6563 75.8273C22.3051 76.1768 21.7782 76.3516 21.4269 76.3516Z" fill="black"/>
<path d="M85.3562 72.5101C83.7756 72.5101 82.1949 71.6362 81.3168 70.4128C77.8042 65.3443 69.901 53.4596 67.4422 49.6146C66.0372 47.5173 66.5641 44.7209 68.496 43.1479L79.7362 34.5839C80.0874 34.4091 80.4387 34.2344 80.7899 34.2344C81.3168 34.2344 81.8437 34.4091 82.1949 34.9335C82.5462 35.283 82.5462 35.8073 82.5462 36.1569C82.5462 36.6812 82.1949 37.0308 81.8437 37.2055L70.6035 45.7695C70.0767 46.2938 69.901 46.9929 70.2523 47.692C77.1017 58.0037 81.8437 64.9947 84.1268 68.4902C84.4781 68.8398 84.8293 69.1893 85.3562 69.1893C85.7075 69.1893 85.8831 69.1893 86.0587 69.0146L95.1913 63.247C95.5426 63.0722 95.7182 63.0722 96.0695 63.0722C96.5964 63.0722 97.1232 63.4218 97.4745 63.9461C98.0014 64.6452 97.6501 65.6938 96.9476 66.2182L87.815 71.9857C87.1125 72.1605 86.2344 72.5101 85.3562 72.5101Z" fill="black"/>
<path d="M11.7675 70.2348C10.8894 70.2348 10.1869 70.0601 9.48435 69.5357L0.878618 64.642C0.527363 64.4673 0.176109 64.1177 0.000481576 63.5934C-0.175146 63.2439 0.000481583 62.7195 0.176109 62.37C0.527363 61.8457 1.05425 61.4961 1.58113 61.4961C1.93238 61.4961 2.10801 61.4961 2.45926 61.6709L11.065 66.5646C11.2406 66.7393 11.5919 66.7393 11.7675 66.7393C12.2944 66.7393 12.6456 66.5646 12.9969 66.215L25.8177 47.8637C26.1689 47.3393 26.1689 46.4655 25.6421 45.9411L13.3482 35.8042C12.9969 35.4547 12.8213 35.1051 12.8213 34.7556C12.8213 34.2312 12.9969 33.8817 13.1725 33.5321C13.5238 33.1826 14.0507 33.0078 14.4019 33.0078C14.7532 33.0078 15.1044 33.1826 15.4557 33.3574L27.9252 43.4943C29.8571 45.0673 30.2084 47.8637 28.8034 49.961L15.8069 68.3123C14.9288 69.5357 13.3482 70.2348 11.7675 70.2348Z" fill="black"/>
<path d="M76.0478 75.1302C75.5209 75.1302 75.1696 74.9555 74.8184 74.6059C74.1159 73.9068 74.1159 72.8582 74.8184 72.1591L80.4385 66.3915C80.7897 66.042 81.141 65.8672 81.6679 65.8672C82.1947 65.8672 82.546 66.042 82.8973 66.3915C83.2485 66.7411 83.4241 67.0906 83.4241 67.6149C83.4241 68.1393 83.2485 68.4888 82.8973 68.8384L77.2772 74.6059C76.9259 74.9555 76.5747 75.1302 76.0478 75.1302Z" fill="black"/>
<path d="M76.0477 74.6058C75.6965 74.6058 75.3452 74.431 75.1696 74.2562C74.6427 73.7319 74.6427 73.0328 75.1696 72.5085L80.7897 66.7409C81.3165 66.2166 82.019 66.2166 82.5459 66.7409C83.0728 67.2652 83.0728 67.9643 82.5459 68.4886L76.9258 74.2562C76.7502 74.431 76.399 74.6058 76.0477 74.6058Z" fill="black"/>
<path d="M7.72713 63.7683C7.37588 63.7683 7.02462 63.5935 6.84899 63.4187C6.14648 62.8944 5.97086 61.8457 6.32211 61.1466L12.9959 51.3593C13.3472 50.8349 13.8741 50.6602 14.401 50.6602C14.7522 50.6602 15.1035 50.8349 15.2791 51.0097C15.9816 51.534 16.1572 52.5827 15.806 53.2818L9.13215 62.8944C8.78089 63.4187 8.25401 63.7683 7.72713 63.7683Z" fill="black"/>
<path d="M87.9906 64.9938C87.4637 64.9938 86.9368 64.6443 86.5855 64.1199L80.263 54.1578C79.7361 53.4587 80.0873 52.41 80.7898 51.8857C81.1411 51.7109 81.3167 51.7109 81.668 51.7109C82.1949 51.7109 82.7217 52.0605 83.073 52.5848L89.3956 62.547C89.9225 63.2461 89.5712 64.2947 88.8687 64.819C88.5174 64.9938 88.3418 64.9938 87.9906 64.9938Z" fill="black"/>
<path d="M48.9997 41.9226C37.584 41.9226 28.1001 32.6596 28.1001 21.2992C28.1001 9.93884 37.4083 0.675781 48.9997 0.675781C54.4442 0.675781 59.713 2.77308 63.7524 6.7929C64.1037 7.14245 64.2793 7.492 64.2793 7.84155C64.2793 8.1911 64.1037 8.71542 63.7524 8.89019C63.4012 9.06497 63.0499 9.41452 62.523 9.41452C62.1718 9.41452 61.6449 9.23974 61.4693 8.89019C58.1324 5.56947 53.7417 3.82173 48.9997 3.82173C39.3402 3.82173 31.437 11.6866 31.437 21.2992C31.437 30.9118 39.3402 38.7767 48.9997 38.7767C58.6592 38.7767 66.5625 30.9118 66.5625 21.2992C66.5625 20.2506 66.5625 19.3767 66.3868 18.328C66.3868 17.9785 66.3868 17.4542 66.7381 17.1046C66.9137 16.7551 67.4406 16.5803 67.7918 16.4055C67.9675 16.4055 67.9675 16.4055 68.1431 16.4055C68.8456 16.4055 69.5481 16.9298 69.7238 17.8037C69.8994 19.0271 70.075 20.0758 70.075 21.2992C69.7238 32.6596 60.4155 41.9226 48.9997 41.9226Z" fill="black"/>
<path d="M35.3018 19.5533C35.1262 19.5533 34.9505 19.5533 34.9505 19.5533C34.0724 19.3785 33.5455 18.5047 33.7212 17.6308C35.4774 10.6398 41.8 5.74609 49.0007 5.74609C53.2158 5.74609 57.2552 7.31907 60.2409 10.2902C60.9434 10.9893 60.9434 11.8632 60.2409 12.5623C59.8896 12.7371 59.3627 12.9119 59.0115 12.9119C58.6602 12.9119 58.1333 12.7371 57.9577 12.3875C55.6745 10.1155 52.5133 8.71726 49.0007 8.71726C43.205 8.71726 38.2875 12.5623 36.8824 18.1551C36.5312 19.029 36.0043 19.5533 35.3018 19.5533Z" fill="black"/>
<path d="M49.0007 33.8834C48.6494 33.8834 48.2981 33.7086 47.9469 33.5339L36.3555 23.3969C36.0042 23.2222 35.8286 22.6978 35.8286 22.3483C35.8286 21.9987 36.0042 21.6492 36.1799 21.2996C36.5311 20.9501 36.8824 20.7753 37.2336 20.7753C37.5849 20.7753 37.9361 20.9501 38.2874 21.1249L48.6494 30.2131L65.334 9.41495C65.6852 9.0654 66.0365 8.89062 66.5634 8.89062C66.9146 8.89062 67.2659 9.0654 67.4415 9.24018C67.7928 9.41495 67.9684 9.7645 67.9684 10.2888C67.9684 10.6384 67.9684 10.9879 67.6171 11.3375L50.0544 33.3591C49.8788 33.7086 49.5275 33.8834 49.0007 33.8834Z" fill="black"/>
</g>
<defs>
<clipPath id="clip0">
<rect width="98" height="97" fill="white" transform="translate(0 0.675781)"/>
</clipPath>
</defs>
</svg>
