<svg width="29" height="28" viewBox="0 0 29 28" fill="none" xmlns="http://www.w3.org/2000/svg">
<path d="M14.1654 9.33135C11.5947 9.33135 9.49679 11.4293 9.49679 14C9.49679 16.5707 11.5947 18.6687 14.1654 18.6687C16.7362 18.6687 18.8341 16.5707 18.8341 14C18.8341 11.4293 16.7362 9.33135 14.1654 9.33135ZM28.1679 14C28.1679 12.0667 28.1854 10.1509 28.0768 8.2211C27.9683 5.97958 27.4569 3.99024 25.8178 2.35113C24.1752 0.708519 22.1894 0.200677 19.9478 0.0921032C18.0145 -0.0164701 16.0987 0.00104176 14.1689 0.00104176C12.2356 0.00104176 10.3198 -0.0164701 8.39004 0.0921032C6.14853 0.200677 4.15918 0.712022 2.52007 2.35113C0.877465 3.99374 0.369622 5.97958 0.261049 8.2211C0.152475 10.1544 0.169987 12.0702 0.169987 14C0.169987 15.9298 0.152475 17.8491 0.261049 19.7789C0.369622 22.0204 0.880967 24.0098 2.52007 25.6489C4.16268 27.2915 6.14853 27.7993 8.39004 27.9079C10.3233 28.0165 12.2391 27.999 14.1689 27.999C16.1023 27.999 18.018 28.0165 19.9478 27.9079C22.1894 27.7993 24.1787 27.288 25.8178 25.6489C27.4604 24.0063 27.9683 22.0204 28.0768 19.7789C28.1889 17.8491 28.1679 15.9333 28.1679 14ZM14.1654 21.1834C10.1903 21.1834 6.98209 17.9752 6.98209 14C6.98209 10.0248 10.1903 6.81665 14.1654 6.81665C18.1406 6.81665 21.3488 10.0248 21.3488 14C21.3488 17.9752 18.1406 21.1834 14.1654 21.1834ZM21.643 8.20008C20.7149 8.20008 19.9654 7.45057 19.9654 6.52245C19.9654 5.59432 20.7149 4.84481 21.643 4.84481C22.5711 4.84481 23.3206 5.59432 23.3206 6.52245C23.3209 6.74284 23.2777 6.96111 23.1935 7.16478C23.1093 7.36844 22.9857 7.55349 22.8299 7.70933C22.674 7.86517 22.489 7.98873 22.2853 8.07294C22.0817 8.15715 21.8634 8.20036 21.643 8.20008Z" fill="black"/>
</svg>
