<svg width="36" height="28" viewBox="0 0 36 28" fill="none" xmlns="http://www.w3.org/2000/svg">
<path d="M34.3695 3.7613C33.9338 2.23639 32.8446 1.14717 31.3197 0.711478C26.745 0.275789 22.1702 -0.159901 17.5955 0.0579437C13.0207 0.0579437 8.446 0.275789 3.87127 0.711478C2.5642 1.14717 1.25713 2.45424 0.821442 3.7613C-0.0472515 10.5595 -0.0472515 17.4405 0.821442 24.2387C1.25713 25.7636 2.34635 26.8528 3.87127 27.2885C8.446 27.7242 13.0207 28.1599 17.5955 27.9421C22.1702 27.9421 26.745 27.7242 31.3197 27.2885C32.8446 26.8528 33.9338 25.7636 34.3695 24.2387C35.2382 17.4405 35.2382 10.5595 34.3695 3.7613ZM13.2386 20.5353V7.46466L24.5665 14L13.2386 20.5353Z" fill="black"/>
</svg>
