<svg width="21" height="21" viewBox="0 0 21 21" fill="none" xmlns="http://www.w3.org/2000/svg">
<path d="M7.02095 20.1571C7.91866 20.1571 8.6464 19.4294 8.6464 18.5317C8.6464 17.634 7.91866 16.9062 7.02095 16.9062C6.12324 16.9062 5.39551 17.634 5.39551 18.5317C5.39551 19.4294 6.12324 20.1571 7.02095 20.1571Z" fill="black"/>
<path d="M15.4731 20.1571C16.3708 20.1571 17.0985 19.4294 17.0985 18.5317C17.0985 17.634 16.3708 16.9062 15.4731 16.9062C14.5754 16.9062 13.8477 17.634 13.8477 18.5317C13.8477 19.4294 14.5754 20.1571 15.4731 20.1571Z" fill="black"/>
<path d="M17.7494 8.12752C16.4561 8.12752 15.2158 7.61376 14.3013 6.69927C13.3868 5.78478 12.8731 4.54447 12.8731 3.25118H4.23221L3.93963 2.32143C3.90749 2.2216 3.85168 2.13102 3.77696 2.05743C3.70223 1.98384 3.61082 1.92942 3.51051 1.89881L0.84478 1.07959C0.762813 1.0544 0.676687 1.0456 0.59132 1.0537C0.505953 1.0618 0.423017 1.08663 0.347246 1.12678C0.194222 1.20786 0.0796752 1.34641 0.028806 1.51195C-0.0220633 1.6775 -0.00508824 1.85646 0.0759966 2.00949C0.157081 2.16251 0.295634 2.27706 0.461175 2.32793L2.79532 3.04312L5.77313 12.4512L4.71334 13.3224L4.62882 13.407C4.36673 13.7104 4.21824 14.0956 4.20875 14.4964C4.19927 14.8973 4.32937 15.289 4.5768 15.6046C4.75402 15.8201 4.9792 15.9911 5.23435 16.104C5.48951 16.2169 5.76754 16.2685 6.04621 16.2548H16.8977C17.0701 16.2548 17.2355 16.1862 17.3574 16.0643C17.4794 15.9424 17.5479 15.777 17.5479 15.6046C17.5479 15.4321 17.4794 15.2668 17.3574 15.1448C17.2355 15.0229 17.0701 14.9544 16.8977 14.9544H5.94218C5.86731 14.9518 5.79436 14.93 5.73039 14.891C5.66641 14.8521 5.61357 14.7972 5.57697 14.7319C5.54037 14.6665 5.52124 14.5928 5.52143 14.5179C5.52163 14.443 5.54114 14.3694 5.57808 14.3042L7.14501 13.0039H17.1773C17.3258 13.0082 17.4713 12.9615 17.5896 12.8716C17.7079 12.7817 17.7918 12.654 17.8274 12.5097L18.9392 7.95847C18.5511 8.06373 18.1515 8.12051 17.7494 8.12752Z" fill="black"/>
</svg>
