<svg width="21" height="20" viewBox="0 0 21 20" fill="none" xmlns="http://www.w3.org/2000/svg">
<path d="M10.9926 6.66525C9.15637 6.66525 7.65786 8.16376 7.65786 10C7.65786 11.8362 9.15637 13.3348 10.9926 13.3348C12.8289 13.3348 14.3274 11.8362 14.3274 10C14.3274 8.16376 12.8289 6.66525 10.9926 6.66525ZM20.9944 10C20.9944 8.61907 21.0069 7.25064 20.9293 5.87221C20.8518 4.27113 20.4865 2.85017 19.3157 1.67938C18.1424 0.506085 16.724 0.14334 15.1229 0.065788C13.742 -0.0117644 12.3735 0.000744113 10.9951 0.000744113C9.61418 0.000744113 8.24576 -0.0117644 6.86733 0.065788C5.26625 0.14334 3.84529 0.508587 2.6745 1.67938C1.5012 2.85267 1.13846 4.27113 1.06091 5.87221C0.983353 7.25314 0.995861 8.62157 0.995861 10C0.995861 11.3784 0.983353 12.7494 1.06091 14.1278C1.13846 15.7289 1.5037 17.1498 2.6745 18.3206C3.84779 19.4939 5.26625 19.8567 6.86733 19.9342C8.24826 20.0118 9.61668 19.9993 10.9951 19.9993C12.376 19.9993 13.7445 20.0118 15.1229 19.9342C16.724 19.8567 18.1449 19.4914 19.3157 18.3206C20.489 17.1473 20.8518 15.7289 20.9293 14.1278C21.0094 12.7494 20.9944 11.3809 20.9944 10ZM10.9926 15.131C8.1532 15.131 5.86165 12.8394 5.86165 10C5.86165 7.16058 8.1532 4.86903 10.9926 4.86903C13.832 4.86903 16.1236 7.16058 16.1236 10C16.1236 12.8394 13.832 15.131 10.9926 15.131ZM16.3337 5.8572C15.6708 5.8572 15.1354 5.32184 15.1354 4.65889C15.1354 3.99594 15.6708 3.46058 16.3337 3.46058C16.9967 3.46058 17.532 3.99594 17.532 4.65889C17.5322 4.81631 17.5014 4.97222 17.4412 5.1177C17.3811 5.26317 17.2928 5.39535 17.1815 5.50666C17.0702 5.61798 16.938 5.70624 16.7925 5.76639C16.6471 5.82654 16.4911 5.8574 16.3337 5.8572Z" fill="black"/>
</svg>
