<svg width="20" height="20" viewBox="0 0 20 20" fill="none" xmlns="http://www.w3.org/2000/svg">
<path d="M0.978176 19.9961L18.8957 19.9961C19.1549 19.9961 19.4035 19.8931 19.5868 19.7098C19.7701 19.5266 19.873 19.278 19.873 19.0188L19.873 18.1172C19.873 17.858 19.7701 17.6094 19.5868 17.4262C19.4035 17.2429 19.1549 17.1399 18.8957 17.1399L0.978176 17.1399C0.718979 17.1399 0.4704 17.2429 0.287119 17.4262C0.10384 17.6094 0.000875286 17.858 0.000875309 18.1172L0.000875388 19.0188C0.00087541 19.278 0.10384 19.5266 0.287119 19.7099C0.4704 19.8931 0.718979 19.9961 0.978176 19.9961Z" fill="white"/>
<path d="M0.978176 2.85547L18.8957 2.85547C19.1549 2.85547 19.4035 2.7525 19.5868 2.56922C19.7701 2.38594 19.873 2.13736 19.873 1.87817L19.873 0.976594C19.873 0.717398 19.7701 0.468818 19.5868 0.285538C19.4035 0.102259 19.1549 -0.000706133 18.8957 -0.00070611L0.978176 -0.000704544C0.718979 -0.000704521 0.4704 0.102261 0.287119 0.28554C0.10384 0.46882 0.000875286 0.7174 0.000875309 0.976596L0.000875388 1.87817C0.000951704 2.13734 0.103939 2.38588 0.287203 2.56914C0.470467 2.7524 0.719002 2.85539 0.978176 2.85547Z" fill="white"/>
<path d="M-0.000310983 7.58911C-0.000310961 7.8483 0.102653 8.09688 0.285933 8.28016C0.469213 8.46344 0.717793 8.56641 0.976989 8.56641L12.1125 8.56641C12.3717 8.56641 12.6203 8.46344 12.8036 8.28016C12.9869 8.09688 13.0898 7.8483 13.0898 7.58911L13.0898 6.68753C13.0898 6.55921 13.0646 6.43214 13.0154 6.31358C12.9663 6.19502 12.8943 6.08731 12.8036 5.99658C12.7128 5.90585 12.6051 5.83389 12.4865 5.78481C12.3679 5.73572 12.2409 5.71048 12.1125 5.71052L0.976989 5.71052C0.717842 5.71052 0.469305 5.81345 0.286034 5.99666C0.102763 6.17988 -0.000235744 6.42839 -0.000311062 6.68753L-0.000310983 7.58911Z" fill="white"/>
<path d="M-0.000310983 13.2766C-0.000310961 13.5358 0.102653 13.7844 0.285933 13.9677C0.469213 14.1509 0.717793 14.2539 0.976989 14.2539L12.1125 14.2539C12.2409 14.2539 12.368 14.2286 12.4865 14.1795C12.6051 14.1304 12.7128 14.0584 12.8036 13.9677C12.8943 13.8769 12.9663 13.7692 13.0155 13.6506C13.0646 13.532 13.0898 13.4049 13.0898 13.2766L13.0898 12.375C13.0898 12.2467 13.0646 12.1196 13.0154 12.0011C12.9663 11.8825 12.8943 11.7748 12.8036 11.6841C12.7128 11.5933 12.6051 11.5214 12.4865 11.4723C12.3679 11.4232 12.2409 11.398 12.1125 11.398L0.976989 11.398C0.717842 11.398 0.469305 11.5009 0.286034 11.6842C0.102763 11.8674 -0.000235744 12.1159 -0.000311062 12.375L-0.000310983 13.2766Z" fill="white"/>
<path d="M19.7101 7.74499C19.6884 7.74502 19.6669 7.7494 19.6469 7.75787C19.6269 7.76635 19.6088 7.77874 19.5937 7.79433L16.029 9.85248L16.033 9.85937C16.0081 9.87311 15.9873 9.89321 15.9728 9.9176C15.9582 9.94198 15.9504 9.9698 15.9501 9.9982C15.9501 10.0298 15.9593 10.0607 15.9767 10.0872C15.994 10.1136 16.0186 10.1344 16.0476 10.1471L16.0459 10.1499L19.5959 12.1998C19.6186 12.2219 19.6471 12.2369 19.6781 12.243C19.7091 12.2491 19.7412 12.2461 19.7705 12.2343C19.7998 12.2224 19.825 12.2023 19.8431 12.1764C19.8612 12.1504 19.8713 12.1198 19.8722 12.0882L19.873 12.0882L19.873 7.90792C19.8731 7.88651 19.8689 7.86531 19.8607 7.84553C19.8525 7.82574 19.8405 7.80776 19.8254 7.79263C19.8103 7.77749 19.7923 7.76549 19.7725 7.75732C19.7527 7.74914 19.7315 7.74495 19.7101 7.74499Z" fill="white"/>
</svg>
