<svg width="21" height="20" viewBox="0 0 21 20" fill="none" xmlns="http://www.w3.org/2000/svg">
<path d="M19.7689 3.30368e-06L1.85132 1.70877e-07C1.59213 1.25557e-07 1.34355 0.102966 1.16027 0.286245C0.976989 0.469525 0.874023 0.718105 0.874023 0.977301L0.874023 1.87887C0.874023 2.13807 0.976988 2.38665 1.16027 2.56993C1.34355 2.75321 1.59213 2.85617 1.85132 2.85617L19.7689 2.85618C20.0281 2.85618 20.2767 2.75321 20.46 2.56993C20.6432 2.38665 20.7462 2.13807 20.7462 1.87888L20.7462 0.977305C20.7462 0.718108 20.6432 0.469528 20.46 0.286248C20.2767 0.102969 20.0281 3.349e-06 19.7689 3.30368e-06Z" fill="black"/>
<path d="M19.7689 17.1406L1.85132 17.1406C1.59213 17.1406 1.34355 17.2436 1.16027 17.4269C0.976989 17.6101 0.874023 17.8587 0.874023 18.1179L0.874023 19.0195C0.874023 19.2787 0.976988 19.5273 1.16027 19.7106C1.34355 19.8938 1.59213 19.9968 1.85132 19.9968L19.7689 19.9968C20.0281 19.9968 20.2767 19.8938 20.46 19.7106C20.6432 19.5273 20.7462 19.2787 20.7462 19.0195L20.7462 18.1179C20.7461 17.8588 20.6431 17.6102 20.4599 17.427C20.2766 17.2437 20.0281 17.1407 19.7689 17.1406Z" fill="black"/>
<path d="M20.7474 12.407C20.7474 12.1478 20.6444 11.8992 20.4611 11.7159C20.2779 11.5327 20.0293 11.4297 19.7701 11.4297L8.63453 11.4297C8.37533 11.4297 8.12675 11.5327 7.94347 11.7159C7.76019 11.8992 7.65723 12.1478 7.65723 12.407L7.65723 13.3086C7.65723 13.4369 7.68251 13.564 7.73162 13.6825C7.78074 13.8011 7.85273 13.9088 7.94349 13.9995C8.03424 14.0902 8.14198 14.1622 8.26055 14.2113C8.37912 14.2604 8.5062 14.2856 8.63453 14.2856L19.7701 14.2856C20.0292 14.2856 20.2778 14.1827 20.461 13.9994C20.6443 13.8162 20.7473 13.5677 20.7474 13.3086L20.7474 12.407Z" fill="black"/>
<path d="M20.7474 6.71949C20.7474 6.46029 20.6444 6.21172 20.4611 6.02844C20.2779 5.84516 20.0293 5.74219 19.7701 5.74219L8.63453 5.74219C8.50619 5.74219 8.3791 5.76747 8.26053 5.81658C8.14196 5.8657 8.03422 5.93768 7.94347 6.02843C7.85272 6.11918 7.78073 6.22692 7.73162 6.34549C7.68251 6.46406 7.65723 6.59115 7.65723 6.71949L7.65723 7.62106C7.65723 7.74939 7.68251 7.87646 7.73162 7.99502C7.78074 8.11357 7.85273 8.22129 7.94349 8.31202C8.03424 8.40274 8.14198 8.4747 8.26055 8.52379C8.37912 8.57287 8.5062 8.59811 8.63453 8.59808L19.7701 8.59808C20.0292 8.59808 20.2778 8.49515 20.461 8.31194C20.6443 8.12872 20.7473 7.88021 20.7474 7.62106L20.7474 6.71949Z" fill="black"/>
<path d="M1.03695 12.2511C1.05868 12.2511 1.08017 12.2467 1.10018 12.2382C1.12018 12.2297 1.13828 12.2173 1.15342 12.2018L4.71811 10.1436L4.7141 10.1367C4.73896 10.123 4.75973 10.1029 4.77429 10.0785C4.78885 10.0541 4.79669 10.0263 4.797 9.99789C4.79696 9.96628 4.78772 9.93537 4.7704 9.90893C4.75308 9.88249 4.72843 9.86167 4.69947 9.84901L4.70119 9.84615L1.15112 7.79631C1.12852 7.77422 1.09997 7.7592 1.06896 7.75308C1.03796 7.74696 1.00584 7.75 0.976542 7.76184C0.94724 7.77368 0.922021 7.79379 0.903967 7.81973C0.885913 7.84567 0.875807 7.8763 0.874884 7.90789L0.874024 7.90789L0.874023 12.0882C0.873985 12.1096 0.878174 12.1308 0.886348 12.1506C0.894523 12.1704 0.906523 12.1883 0.92166 12.2035C0.936797 12.2186 0.954773 12.2306 0.974558 12.2388C0.994343 12.247 1.01555 12.2511 1.03695 12.2511Z" fill="black"/>
</svg>
