<svg width="15" height="10" viewBox="0 0 15 10" fill="none" xmlns="http://www.w3.org/2000/svg">
<path d="M0 0.710714C0 0.317857 0.318571 0 0.710714 0H6.43214C6.62064 5.61753e-09 6.80141 0.0748785 6.93469 0.208163C7.06798 0.341448 7.14286 0.522221 7.14286 0.710714C7.14286 0.899207 7.06798 1.07998 6.93469 1.21326C6.80141 1.34655 6.62064 1.42143 6.43214 1.42143H0.710714C0.522221 1.42143 0.341448 1.34655 0.208163 1.21326C0.0748786 1.07998 0 0.899207 0 0.710714Z" fill="black"/>
<path d="M0 4.99978C0 4.60692 0.318571 4.28906 0.710714 4.28906H13.575C13.7635 4.28906 13.9443 4.36394 14.0776 4.49723C14.2108 4.63051 14.2857 4.81128 14.2857 4.99978C14.2857 5.18827 14.2108 5.36904 14.0776 5.50233C13.9443 5.63561 13.7635 5.71049 13.575 5.71049H0.710714C0.522221 5.71049 0.341448 5.63561 0.208163 5.50233C0.0748786 5.36904 0 5.18827 0 4.99978Z" fill="black"/>
<path d="M0.710714 8.57812C0.522221 8.57812 0.341448 8.653 0.208163 8.78629C0.0748786 8.91957 0 9.10035 0 9.28884C0 9.47733 0.0748786 9.6581 0.208163 9.79139C0.341448 9.92467 0.522221 9.99955 0.710714 9.99955H9.28929C9.47778 9.99955 9.65855 9.92467 9.79184 9.79139C9.92512 9.6581 10 9.47733 10 9.28884C10 9.10035 9.92512 8.91957 9.79184 8.78629C9.65855 8.653 9.47778 8.57812 9.28929 8.57812H0.710714Z" fill="black"/>
</svg>
