<svg width="6" height="11" viewBox="0 0 6 11" fill="none" xmlns="http://www.w3.org/2000/svg">
<path d="M1.10068 10.4987C0.934153 10.499 0.772771 10.441 0.644547 10.3348C0.572379 10.275 0.512725 10.2015 0.468999 10.1186C0.425273 10.0356 0.398335 9.9449 0.389729 9.85155C0.381122 9.75821 0.391016 9.66408 0.418843 9.57456C0.44667 9.48504 0.491884 9.40189 0.551895 9.32987L3.74481 5.50977L0.665928 1.68255C0.606727 1.60965 0.562517 1.52576 0.535839 1.43572C0.509161 1.34568 0.500542 1.25125 0.510476 1.15787C0.520411 1.06448 0.548703 0.973981 0.593727 0.891566C0.638752 0.809151 0.69962 0.736447 0.772834 0.677633C0.846575 0.612751 0.93293 0.563811 1.02648 0.533885C1.12003 0.503959 1.21876 0.493694 1.31647 0.503732C1.41417 0.51377 1.50875 0.543896 1.59426 0.592219C1.67978 0.640542 1.75438 0.706018 1.81338 0.784539L5.25575 5.06077C5.36058 5.1883 5.41788 5.34826 5.41788 5.51334C5.41788 5.67842 5.36058 5.83838 5.25575 5.96591L1.69222 10.2421C1.62073 10.3284 1.5299 10.3966 1.42713 10.4411C1.32435 10.4857 1.21251 10.5054 1.10068 10.4987Z" fill="#021732"/>
</svg>
