<svg width="6" height="10" viewBox="0 0 6 10" fill="none" xmlns="http://www.w3.org/2000/svg">
<path d="M1.19833 9.99871C1.03181 9.99904 0.870427 9.94104 0.742203 9.83479C0.670036 9.77496 0.610381 9.70148 0.566655 9.61856C0.522929 9.53563 0.495992 9.4449 0.487385 9.35155C0.478779 9.25821 0.488672 9.16408 0.5165 9.07456C0.544327 8.98504 0.58954 8.90189 0.649551 8.82987L3.84247 5.00977L0.763585 1.18255C0.704383 1.10965 0.660173 1.02576 0.633495 0.935721C0.606817 0.845678 0.598198 0.751251 0.608132 0.657866C0.618067 0.564481 0.646359 0.473981 0.691383 0.391566C0.736408 0.309151 0.797276 0.236447 0.87049 0.177633C0.944231 0.112751 1.03059 0.0638109 1.12414 0.0338851C1.21769 0.00395926 1.31642 -0.00630633 1.41412 0.00373205C1.51183 0.0137704 1.60641 0.0438963 1.69192 0.092219C1.77743 0.140542 1.85203 0.206018 1.91104 0.284539L5.35341 4.56077C5.45823 4.6883 5.51554 4.84826 5.51554 5.01334C5.51554 5.17842 5.45823 5.33838 5.35341 5.46591L1.78988 9.74214C1.71838 9.82839 1.62756 9.89657 1.52478 9.94114C1.422 9.98572 1.31016 10.0054 1.19833 9.99871Z" fill="white"/>
</svg>
