<svg width="19" height="18" viewBox="0 0 19 18" fill="none" xmlns="http://www.w3.org/2000/svg">
<path d="M7.37402 0C9.09793 0 10.7512 0.684819 11.9702 1.90381C13.1892 3.12279 13.874 4.77609 13.874 6.5C13.874 8.11 13.284 9.59 12.314 10.73L12.584 11H13.374L18.374 16L16.874 17.5L11.874 12.5V11.71L11.604 11.44C10.4246 12.4468 8.92473 12.9999 7.37402 13C5.65012 13 3.99682 12.3152 2.77783 11.0962C1.55884 9.87721 0.874023 8.22391 0.874023 6.5C0.874023 4.77609 1.55884 3.12279 2.77783 1.90381C3.99682 0.684819 5.65012 0 7.37402 0ZM7.37402 2C4.87402 2 2.87402 4 2.87402 6.5C2.87402 9 4.87402 11 7.37402 11C9.87402 11 11.874 9 11.874 6.5C11.874 4 9.87402 2 7.37402 2Z" fill="black"/>
</svg>
