<svg width="20" height="20" viewBox="0 0 20 20" fill="none" xmlns="http://www.w3.org/2000/svg">
<path d="M9.67033 0C4.32825 0 0 4.47581 0 10C0 15.5242 4.32825 20 9.67033 20C15.0124 20 19.3407 15.5242 19.3407 10C19.3407 4.47581 15.0124 0 9.67033 0ZM9.67033 3.87097C11.5654 3.87097 13.1017 5.45968 13.1017 7.41935C13.1017 9.37903 11.5654 10.9677 9.67033 10.9677C7.77526 10.9677 6.23892 9.37903 6.23892 7.41935C6.23892 5.45968 7.77526 3.87097 9.67033 3.87097ZM9.67033 17.7419C7.38143 17.7419 5.33038 16.6694 3.95782 14.9919C4.69089 13.5645 6.12584 12.5806 7.79866 12.5806C7.89224 12.5806 7.98582 12.5968 8.07551 12.625C8.58242 12.7944 9.11273 12.9032 9.67033 12.9032C10.2279 12.9032 10.7621 12.7944 11.2652 12.625C11.3548 12.5968 11.4484 12.5806 11.542 12.5806C13.2148 12.5806 14.6498 13.5645 15.3828 14.9919C14.0103 16.6694 11.9592 17.7419 9.67033 17.7419Z" fill="black"/>
</svg>
