<svg width="26" height="20" viewBox="0 0 26 20" fill="none" xmlns="http://www.w3.org/2000/svg">
<path d="M25.4234 2.68665C25.1122 1.59742 24.3342 0.819405 23.245 0.508199C19.9773 0.196992 16.7096 -0.114215 13.4419 0.0413883C10.1743 0.0413883 6.9066 0.196992 3.63894 0.508199C2.70532 0.819405 1.7717 1.75303 1.46049 2.68665C0.839993 7.54247 0.839993 12.4575 1.46049 17.3134C1.7717 18.4026 2.54971 19.1806 3.63894 19.4918C6.9066 19.803 10.1743 20.1142 13.4419 19.9586C16.7096 19.9586 19.9773 19.803 23.245 19.4918C24.3342 19.1806 25.1122 18.4026 25.4234 17.3134C26.0439 12.4575 26.0439 7.54247 25.4234 2.68665ZM10.3299 14.6681V5.3319L18.4212 10L10.3299 14.6681Z" fill="black"/>
</svg>
