<svg width="53" height="53" viewBox="0 0 53 53" fill="none" xmlns="http://www.w3.org/2000/svg">
<path d="M6.14726 26.7993C6.14726 15.3333 15.4813 5.99932 26.9473 5.99932C38.4133 5.99932 47.7473 15.3333 47.7473 26.7993C47.7473 38.2653 38.4133 47.5993 26.9473 47.5993C15.4813 47.5993 6.14726 38.2653 6.14726 26.7993ZM0.947265 26.7993C0.947265 41.1513 12.5953 52.7993 26.9473 52.7993C41.2993 52.7993 52.9473 41.1513 52.9473 26.7993C52.9473 12.4473 41.2993 0.799316 26.9473 0.799317C12.5953 0.799318 0.947264 12.4473 0.947265 26.7993ZM34.7473 26.7993L24.3473 37.1993L24.3473 16.3993L34.7473 26.7993Z" fill="#7B7B7B"/>
</svg>
