<svg width="47" height="52" viewBox="0 0 47 52" fill="none" xmlns="http://www.w3.org/2000/svg">
<path d="M5.08756 25.7048C5.08756 14.3721 13.4467 5.14669 23.7152 5.14669C33.9836 5.14669 42.3428 14.3721 42.3428 25.7048C42.3428 37.0374 33.9836 46.2628 23.7152 46.2628C13.4467 46.2628 5.08756 37.0374 5.08756 25.7048ZM0.430663 25.7048C0.430664 39.8898 10.8621 51.4023 23.7152 51.4023C36.5682 51.4023 46.9997 39.8898 46.9997 25.7048C46.9997 11.5197 36.5682 0.00717609 23.7152 0.00717671C10.8621 0.00717733 0.430662 11.5197 0.430663 25.7048ZM30.7005 25.7048L21.3867 35.9838L21.3867 15.4257L30.7005 25.7048Z" fill="#7B7B7B"/>
</svg>
